<svg width="16" height="16" viewBox="0 0 16 16" fill="none" xmlns="http://www.w3.org/2000/svg">
<path d="M8 12.6406C7.73958 12.6406 7.5026 12.5365 7.28906 12.3281L1.34375 6.24219C1.25521 6.15885 1.1875 6.0651 1.14062 5.96094C1.09896 5.85156 1.07812 5.73438 1.07812 5.60938C1.07812 5.4375 1.11719 5.28125 1.19531 5.14062C1.27865 5 1.38802 4.89062 1.52344 4.8125C1.65885 4.72917 1.8125 4.6875 1.98438 4.6875C2.23438 4.6875 2.45312 4.78125 2.64062 4.96875L8.38281 10.8516H7.625L13.3594 4.96875C13.5469 4.78125 13.7656 4.6875 14.0156 4.6875C14.1875 4.6875 14.3411 4.72917 14.4766 4.8125C14.612 4.89062 14.7188 5 14.7969 5.14062C14.8802 5.28125 14.9219 5.4375 14.9219 5.60938C14.9219 5.85417 14.8333 6.0651 14.6562 6.24219L8.71094 12.3281C8.61198 12.4323 8.5026 12.5104 8.38281 12.5625C8.26302 12.6146 8.13542 12.6406 8 12.6406Z" fill="#0D0D15"/>
</svg>
