<svg width="24" height="24" viewBox="0 0 24 24" fill="none" xmlns="http://www.w3.org/2000/svg">
<path d="M2.00195 12.0614C2.00312 17.0111 5.58035 21.2255 10.439 22.0012V14.9692H7.90195V12.0614H10.442V9.84786C10.3284 8.79898 10.6845 7.75363 11.4136 6.99534C12.1427 6.23703 13.1693 5.84437 14.215 5.92385C14.9655 5.93604 15.7141 6.0033 16.455 6.12508V8.59922H15.191C14.7558 8.54187 14.3183 8.68647 14.0017 8.99229C13.6851 9.2981 13.5237 9.73203 13.563 10.1718V12.0614H16.334L15.891 14.9702H13.563V22.0012C18.8174 21.1657 22.502 16.3373 21.9475 11.0141C21.3929 5.69079 16.7932 1.73615 11.4808 2.01511C6.16831 2.29407 2.0028 6.70896 2.00195 12.0614Z" fill="#0D0D15"/>
</svg>
