<svg width="24" height="24" viewBox="0 0 24 24" fill="none" xmlns="http://www.w3.org/2000/svg">
<path d="M19.5013 12.5719L12.0013 19.9999L4.50128 12.5719C4.00658 12.0905 3.61692 11.5119 3.35683 10.8726C3.09673 10.2332 2.97184 9.54688 2.99002 8.85687C3.00819 8.16685 3.16904 7.48807 3.46244 6.86327C3.75583 6.23847 4.17541 5.68119 4.69476 5.22651C5.21411 4.77184 5.82198 4.42962 6.48009 4.22141C7.1382 4.01321 7.83228 3.94352 8.51865 4.01673C9.20501 4.08995 9.86878 4.30449 10.4682 4.64684C11.0675 4.98919 11.5895 5.45193 12.0013 6.00593C12.4148 5.45595 12.9374 4.99725 13.5364 4.65854C14.1353 4.31982 14.7978 4.10838 15.4822 4.03745C16.1666 3.96652 16.8584 4.03763 17.5141 4.24632C18.1697 4.45502 18.7753 4.79681 19.2928 5.2503C19.8104 5.70379 20.2287 6.25922 20.5217 6.88182C20.8147 7.50443 20.976 8.18082 20.9956 8.86864C21.0152 9.55647 20.8925 10.2409 20.6354 10.8792C20.3783 11.5174 19.9922 12.0958 19.5013 12.5779" stroke="#273544" stroke-opacity="0.55" stroke-width="2" stroke-linecap="round" stroke-linejoin="round"/>
</svg>
