<svg width="188" height="42" viewBox="0 0 188 42" fill="none" xmlns="http://www.w3.org/2000/svg">
<path d="M0 38.7705V3H13.7792C16.2524 3 18.4366 3.43213 20.3316 4.29638C22.2588 5.16063 23.7684 6.44101 24.8605 8.13751C25.9525 9.83401 26.4985 11.9306 26.4985 14.4274C26.4985 16.8601 25.9365 18.9247 24.8123 20.6212C23.7202 22.3177 22.2106 23.614 20.2834 24.5103C18.3884 25.3746 16.2203 25.8067 13.7792 25.8067H7.46777V38.7705H0ZM7.46777 19.3248H13.8274C14.8874 19.3248 15.8028 19.1167 16.5736 18.7006C17.3445 18.2845 17.9387 17.7083 18.3563 16.9721C18.8059 16.2359 19.0308 15.3876 19.0308 14.4274C19.0308 13.4351 18.8059 12.5708 18.3563 11.8346C17.9387 11.0984 17.3445 10.5222 16.5736 10.1061C15.8028 9.68997 14.8874 9.4819 13.8274 9.4819H7.46777V19.3248Z" fill="#0265DC"/>
<path d="M29.7947 38.7705V12.5548H37.0215V38.7705H29.7947ZM29.7947 10.2021V3H37.0215V10.2021H29.7947Z" fill="#0265DC"/>
<path d="M39.2747 38.7705L48.4769 25.6146L39.2265 12.5548H47.6097L54.5475 22.7338H50.8859L57.8237 12.5548H66.2068L56.9564 25.6146L66.1105 38.7705H57.7755L50.9822 28.5915H54.4511L47.6579 38.7705H39.2747Z" fill="#0265DC"/>
<path d="M68.4246 38.7705V12.5548H75.1697V18.9407L74.447 17.8844C74.8324 15.8678 75.7639 14.3793 77.2414 13.4191C78.7189 12.4588 80.4854 11.9786 82.5411 11.9786C84.7252 11.9786 86.6363 12.5388 88.2744 13.6591C89.9446 14.7474 90.9885 16.2199 91.406 18.0764L89.3343 18.2685C90.2016 16.1239 91.4382 14.5394 93.0441 13.5151C94.6501 12.4908 96.5291 11.9786 98.6811 11.9786C100.576 11.9786 102.246 12.3948 103.692 13.227C105.169 14.0592 106.326 15.2276 107.161 16.732C107.996 18.2045 108.413 19.933 108.413 21.9176V38.7705H101.186V23.454C101.186 22.4297 100.994 21.5494 100.608 20.8132C100.255 20.077 99.741 19.5008 99.0665 19.0847C98.392 18.6686 97.573 18.4605 96.6094 18.4605C95.6779 18.4605 94.8589 18.6686 94.1523 19.0847C93.4777 19.5008 92.9478 20.077 92.5623 20.8132C92.209 21.5494 92.0324 22.4297 92.0324 23.454V38.7705H84.8055V23.454C84.8055 22.4297 84.6128 21.5494 84.2273 20.8132C83.874 20.077 83.3601 19.5008 82.6856 19.0847C82.0111 18.6686 81.1921 18.4605 80.2285 18.4605C79.297 18.4605 78.478 18.6686 77.7713 19.0847C77.0968 19.5008 76.5669 20.077 76.1814 20.8132C75.8281 21.5494 75.6515 22.4297 75.6515 23.454V38.7705H68.4246Z" fill="#0265DC"/>
<path d="M120.348 39.3467C118.453 39.3467 116.815 39.0426 115.434 38.4344C114.052 37.8262 112.992 36.962 112.254 35.8416C111.515 34.6893 111.146 33.3289 111.146 31.7604C111.146 30.288 111.483 28.9916 112.157 27.8713C112.832 26.719 113.86 25.7587 115.241 24.9905C116.654 24.2222 118.405 23.6781 120.492 23.358L128.538 22.0616V27.3431L121.793 28.5435C120.765 28.7356 119.978 29.0717 119.432 29.5518C118.886 29.9999 118.613 30.6561 118.613 31.5204C118.613 32.3206 118.918 32.9448 119.529 33.3929C120.139 33.8411 120.894 34.0651 121.793 34.0651C122.982 34.0651 124.025 33.809 124.925 33.2969C125.824 32.7847 126.515 32.0965 126.997 31.2323C127.51 30.336 127.767 29.3597 127.767 28.3034V21.4854C127.767 20.4931 127.366 19.6609 126.563 18.9887C125.792 18.3165 124.732 17.9804 123.383 17.9804C122.098 17.9804 120.958 18.3325 119.962 19.0367C118.999 19.7409 118.292 20.6692 117.842 21.8215L112.061 19.0847C112.575 17.6123 113.394 16.3479 114.518 15.2916C115.642 14.2353 116.991 13.4191 118.565 12.8429C120.139 12.2667 121.857 11.9786 123.72 11.9786C125.937 11.9786 127.896 12.3788 129.598 13.179C131.301 13.9792 132.617 15.0996 133.549 16.54C134.512 17.9484 134.994 19.5969 134.994 21.4854V38.7705H128.249V34.5453L129.887 34.2572C129.116 35.4095 128.265 36.3698 127.334 37.138C126.402 37.8742 125.358 38.4184 124.202 38.7705C123.046 39.1546 121.761 39.3467 120.348 39.3467Z" fill="#0265DC"/>
<path d="M139.331 38.7705V12.5548H146.076V18.8447L145.594 17.9324C146.172 15.7237 147.12 14.2353 148.437 13.4671C149.786 12.6668 151.376 12.2667 153.206 12.2667H154.748V18.5086H152.484C150.717 18.5086 149.288 19.0527 148.196 20.141C147.104 21.1973 146.558 22.7018 146.558 24.6544V38.7705H139.331Z" fill="#0265DC"/>
<path d="M170.564 39.0586C167.384 39.0586 164.911 38.2103 163.144 36.5138C161.41 34.7853 160.543 32.3846 160.543 29.3117V18.7966H156.11V12.5548H156.351C157.7 12.5548 158.728 12.2187 159.435 11.5465C160.173 10.8743 160.543 9.86602 160.543 8.52162V6.60106H167.77V12.5548H173.937V18.7966H167.77V28.8316C167.77 29.7278 167.93 30.4801 168.251 31.0882C168.573 31.6644 169.07 32.0965 169.745 32.3846C170.419 32.6727 171.255 32.8168 172.25 32.8168C172.475 32.8168 172.732 32.8007 173.021 32.7687C173.31 32.7367 173.615 32.7047 173.937 32.6727V38.7705C173.455 38.8345 172.909 38.8985 172.298 38.9626C171.688 39.0266 171.11 39.0586 170.564 39.0586Z" fill="#0265DC"/>
<path d="M180.773 38.7705V31.5684H188V38.7705H180.773Z" fill="#0265DC"/>
</svg>
