<svg width="300" height="58" viewBox="0 0 300 58" fill="none" xmlns="http://www.w3.org/2000/svg">
<path d="M0 53.5402V4.14282H21.9882C25.9347 4.14282 29.42 4.73957 32.4441 5.93306C35.5193 7.12656 37.9283 8.89469 39.6709 11.2375C41.4136 13.5803 42.2849 16.4756 42.2849 19.9235C42.2849 23.2829 41.388 26.134 39.594 28.4768C37.8514 30.8196 35.4424 32.6098 32.3672 33.8475C29.3432 35.041 25.8835 35.6378 21.9882 35.6378H11.9167V53.5402H0ZM11.9167 26.6866H22.065C23.7564 26.6866 25.2172 26.3993 26.4473 25.8246C27.6774 25.25 28.6256 24.4543 29.2919 23.4376C30.0095 22.421 30.3683 21.2496 30.3683 19.9235C30.3683 18.5531 30.0095 17.3597 29.2919 16.343C28.6256 15.3263 27.6774 14.5306 26.4473 13.956C25.2172 13.3813 23.7564 13.094 22.065 13.094H11.9167V26.6866Z" fill="#0265DC"/>
<path d="M47.5447 53.5402V17.3376H59.0769V53.5402H47.5447ZM47.5447 14.0886V4.14282H59.0769V14.0886H47.5447Z" fill="#0265DC"/>
<path d="M62.6724 53.5402L77.3568 35.3726L62.5955 17.3376H75.9729L87.0438 31.3943H81.2008L92.2718 17.3376H105.649L90.8879 35.3726L105.495 53.5402H92.1949L81.3546 39.4835H86.8901L76.0498 53.5402H62.6724Z" fill="#0265DC"/>
<path d="M109.188 53.5402V17.3376H119.952V26.1561L118.798 24.6974C119.413 21.9126 120.9 19.8572 123.257 18.531C125.615 17.2049 128.434 16.5419 131.714 16.5419C135.2 16.5419 138.249 17.3155 140.863 18.8626C143.529 20.3655 145.194 22.3988 145.861 24.9626L142.555 25.2279C143.939 22.2662 145.912 20.0782 148.475 18.6637C151.037 17.2491 154.036 16.5419 157.47 16.5419C160.494 16.5419 163.159 17.1165 165.466 18.2658C167.823 19.4151 169.668 21.0285 171.001 23.1061C172.334 25.1395 173 27.5264 173 30.2671V53.5402H161.468V32.3888C161.468 30.9743 161.16 29.7587 160.545 28.742C159.981 27.7254 159.161 26.9297 158.085 26.3551C157.009 25.7804 155.702 25.4931 154.164 25.4931C152.678 25.4931 151.371 25.7804 150.243 26.3551C149.167 26.9297 148.321 27.7254 147.706 28.742C147.142 29.7587 146.86 30.9743 146.86 32.3888V53.5402H135.328V32.3888C135.328 30.9743 135.02 29.7587 134.405 28.742C133.842 27.7254 133.021 26.9297 131.945 26.3551C130.869 25.7804 129.562 25.4931 128.024 25.4931C126.538 25.4931 125.231 25.7804 124.103 26.3551C123.027 26.9297 122.181 27.7254 121.566 28.742C121.002 29.7587 120.72 30.9743 120.72 32.3888V53.5402H109.188Z" fill="#0265DC"/>
<path d="M192.044 54.3358C189.02 54.3358 186.406 53.9159 184.202 53.076C181.998 52.2362 180.307 51.0427 179.128 49.4956C177.949 47.9042 177.36 46.0256 177.36 43.8596C177.36 41.8263 177.898 40.036 178.974 38.4889C180.051 36.8976 181.691 35.5715 183.895 34.5106C186.15 33.4497 188.943 32.6983 192.275 32.2562L205.114 30.466V37.7595L194.351 39.4172C192.711 39.6824 191.455 40.1465 190.584 40.8096C189.712 41.4284 189.277 42.3346 189.277 43.5281C189.277 44.6332 189.764 45.4952 190.737 46.114C191.711 46.7328 192.916 47.0423 194.351 47.0423C196.247 47.0423 197.913 46.6886 199.348 45.9814C200.783 45.2741 201.885 44.3238 202.654 43.1303C203.474 41.8926 203.884 40.5444 203.884 39.0857V29.6703C203.884 28.3 203.243 27.1507 201.962 26.2224C200.732 25.2942 199.041 24.83 196.888 24.83C194.838 24.83 193.018 25.3163 191.429 26.2888C189.892 27.2612 188.764 28.5431 188.047 30.1345L178.821 26.3551C179.641 24.3217 180.948 22.5757 182.742 21.117C184.536 19.6582 186.688 18.531 189.2 17.7354C191.711 16.9397 194.453 16.5419 197.426 16.5419C200.963 16.5419 204.089 17.0944 206.806 18.1995C209.522 19.3046 211.624 20.8517 213.11 22.8409C214.648 24.7858 215.416 27.0623 215.416 29.6703V53.5402H204.653V47.7053L207.267 47.3075C206.037 48.8988 204.679 50.2249 203.192 51.2858C201.706 52.3025 200.04 53.0539 198.195 53.5402C196.35 54.0706 194.3 54.3358 192.044 54.3358Z" fill="#0265DC"/>
<path d="M222.336 53.5402V17.3376H233.1V26.0235L232.331 24.7637C233.254 21.7137 234.766 19.6582 236.867 18.5974C239.02 17.4923 241.557 16.9397 244.478 16.9397H246.938V25.5594H243.325C240.506 25.5594 238.225 26.3109 236.483 27.8138C234.74 29.2725 233.869 31.35 233.869 34.0465V53.5402H222.336Z" fill="#0265DC"/>
<path d="M272.177 53.938C267.102 53.938 263.156 52.7666 260.337 50.4238C257.569 48.0368 256.185 44.7216 256.185 40.4781V25.9572H249.112V17.3376H249.497C251.649 17.3376 253.289 16.8734 254.417 15.9451C255.596 15.0169 256.185 13.6245 256.185 11.7679V9.11571H267.717V17.3376H277.558V25.9572H267.717V39.815C267.717 41.0527 267.974 42.0915 268.486 42.9314C268.999 43.727 269.793 44.3238 270.87 44.7216C271.946 45.1194 273.279 45.3183 274.867 45.3183C275.226 45.3183 275.636 45.2962 276.098 45.252C276.559 45.2078 277.046 45.1636 277.558 45.1194V53.5402C276.79 53.6286 275.918 53.717 274.944 53.8054C273.971 53.8938 273.048 53.938 272.177 53.938Z" fill="#0265DC"/>
<path d="M288.468 53.5402V43.5944H300V53.5402H288.468Z" fill="#0265DC"/>
</svg>
