<svg width="32" height="32" viewBox="0 0 32 32" fill="none" xmlns="http://www.w3.org/2000/svg">
<g clip-path="url(#clip0_3364_7582)">
<path d="M30.3999 21.3333H25.2329L29.7053 18.7507C30.074 18.5398 30.3435 18.1909 30.4543 17.7808C30.5654 17.3706 30.5085 16.9333 30.2964 16.5654L26.562 10.0991C26.3494 9.73145 25.999 9.46338 25.5886 9.35425C25.1782 9.24292 24.7402 9.30151 24.3735 9.5166L19.9001 12.0999L22.4819 7.62866C22.6963 7.26099 22.7551 6.823 22.6458 6.41162C22.5364 6.00024 22.2673 5.64941 21.8987 5.43701L15.4333 1.70264C15.0654 1.49121 14.6287 1.43481 14.2192 1.54565C13.8098 1.65649 13.4612 1.92529 13.25 2.29321L10.6667 6.76807V1.6001C10.6658 0.716797 9.94995 0.000976562 9.06665 0H1.6001C0.716797 0.000976562 0.000976562 0.716797 0 1.6001V30.3999C0.000976562 31.2832 0.716797 31.999 1.6001 32H30.3999C31.2832 31.999 31.999 31.2832 32 30.3999V22.9333C31.999 22.05 31.2832 21.3342 30.3999 21.3333ZM1.6001 21.3333C1.41797 21.3352 1.23755 21.3684 1.06665 21.4316V16H5.33643L2.25732 21.3333H1.6001ZM23.0996 21.3333H15.8064L13.363 17.1064L18.9048 13.9065L23.1694 21.2932L23.0996 21.3333ZM18.052 13.167L11.738 16.8132L7.50854 14.3711L10.7073 8.83081L18.0935 13.0952L18.052 13.167ZM9.6001 8.61523L6.32275 14.292C6.32104 14.2947 6.31836 14.2959 6.31665 14.2988L6.31372 14.3074L5.95239 14.9333H1.06665V8.53345H9.6001V8.61523ZM6.97534 15.2949L10.6714 17.4292L3.9104 21.3333H3.48901L6.97534 15.2949ZM11.9978 17.895L12.0046 17.8911L12.4395 17.6399L14.5745 21.3333H6.0437L11.9978 17.895ZM9.6001 22.3999H16V30.9333H9.6001V22.3999ZM17.0667 22.3999H23.4666V30.9333H17.0667V22.3999ZM24.9089 10.4392C25.0305 10.3674 25.1763 10.3477 25.3127 10.3843C25.4504 10.4214 25.5679 10.5112 25.6396 10.6345L29.3718 17.0974C29.4429 17.2202 29.4619 17.3662 29.4246 17.5032C29.3872 17.6399 29.2969 17.7563 29.1733 17.8259L24.093 20.7593L19.8286 13.3728L24.9089 10.4392ZM14.1748 2.82495C14.2446 2.70239 14.3606 2.61255 14.4971 2.57544C14.6333 2.53833 14.7788 2.55688 14.9014 2.6272L21.3633 6.35938C21.4875 6.43091 21.5784 6.54883 21.6157 6.68726C21.6523 6.82471 21.6321 6.97095 21.5593 7.09326L18.6272 12.1714L11.2407 7.90698L14.1748 2.82495ZM1.6001 1.06665H9.06665C9.36108 1.06714 9.59961 1.30566 9.6001 1.6001V7.46655H1.06665V1.6001C1.06714 1.30566 1.30566 1.06714 1.6001 1.06665ZM1.06665 30.3999V22.9333C1.06714 22.6389 1.30566 22.4004 1.6001 22.3999H8.53345V30.9333H1.6001C1.30566 30.9329 1.06714 30.6943 1.06665 30.3999ZM30.9333 30.3999C30.9329 30.6943 30.6943 30.9329 30.3999 30.9333H24.5334V22.3999H30.3999C30.6943 22.4004 30.9329 22.6389 30.9333 22.9333V30.3999Z" fill="#0F73F6"/>
<path d="M5.33252 24.5334C4.1543 24.5334 3.19922 25.4885 3.19922 26.6667C3.19922 27.845 4.1543 28.8 5.33252 28.8C6.51074 28.8 7.46582 27.845 7.46582 26.6667C7.4646 25.489 6.51025 24.5347 5.33252 24.5334ZM5.33252 27.7334C4.74341 27.7334 4.26587 27.2559 4.26587 26.6667C4.26587 26.0776 4.74341 25.6001 5.33252 25.6001C5.92163 25.6001 6.39917 26.0776 6.39917 26.6667C6.39868 27.2556 5.92139 27.7327 5.33252 27.7334Z" fill="#0F73F6"/>
</g>
<defs>
<clipPath id="clip0_3364_7582">
<rect width="32" height="32" fill="white"/>
</clipPath>
</defs>
</svg>
