<svg width="32" height="32" viewBox="0 0 32 32" fill="none" xmlns="http://www.w3.org/2000/svg">
<g clip-path="url(#clip0_3364_7584)">
<path d="M31.7228 23.2826L28.4428 21.6426L26.3553 16.2126C26.3307 16.1484 26.2932 16.0899 26.245 16.0409C26.1968 15.9918 26.1391 15.9533 26.0753 15.9276L13.1228 10.7501C13.0322 10.714 12.9331 10.7052 12.8376 10.7248C12.7421 10.7443 12.6544 10.7913 12.5853 10.8601L10.8578 12.5876C10.79 12.6567 10.7437 12.7441 10.7246 12.8391C10.7056 12.9341 10.7145 13.0326 10.7503 13.1226L15.9278 26.0751C15.9535 26.1388 15.9921 26.1966 16.0411 26.2448C16.0902 26.2929 16.1486 26.3305 16.2128 26.3551L21.6428 28.4426L23.2828 31.7226C23.3173 31.7949 23.3688 31.8578 23.4327 31.9061C23.4967 31.9544 23.5713 31.9866 23.6503 32.0001C23.6769 32.0025 23.7037 32.0025 23.7303 32.0001C23.8627 31.9995 23.9895 31.9465 24.0828 31.8526L31.8528 24.0826C31.91 24.0274 31.9532 23.9594 31.9789 23.8841C32.0045 23.8089 32.0119 23.7287 32.0003 23.6501C31.9869 23.571 31.9547 23.4964 31.9064 23.4325C31.8581 23.3685 31.7951 23.3171 31.7228 23.2826ZM11.7978 13.0576L12.0753 12.7826L18.5228 19.2301C18.0979 19.8322 17.9144 20.5718 18.0086 21.3027C18.1027 22.0336 18.4677 22.7025 19.0314 23.1773C19.595 23.652 20.3163 23.898 21.0526 23.8665C21.7888 23.835 22.4865 23.5284 23.0076 23.0073C23.5287 22.4862 23.8353 21.7886 23.8667 21.0523C23.8982 20.3161 23.6523 19.5948 23.1775 19.0311C22.7028 18.4675 22.0338 18.1025 21.3029 18.0083C20.572 17.9141 19.8324 18.0976 19.2303 18.5226L12.7828 12.0751L13.0578 11.7976L25.5003 16.7751L27.4628 21.8801L21.8803 27.4626L16.7753 25.5001L11.7978 13.0576ZM20.9253 18.9826C21.3747 18.9832 21.8099 19.1397 22.1569 19.4253C22.5038 19.7108 22.7411 20.1079 22.8281 20.5487C22.9152 20.9896 22.8467 21.447 22.6343 21.843C22.422 22.239 22.0789 22.5492 21.6635 22.7206C21.2481 22.8921 20.7861 22.9142 20.3563 22.7832C19.9264 22.6523 19.5553 22.3763 19.306 22.0024C19.0568 21.6285 18.9449 21.1797 18.9895 20.7325C19.034 20.2854 19.2322 19.8675 19.5503 19.5501C19.9153 19.1862 20.4099 18.9821 20.9253 18.9826ZM23.8678 30.6551L22.6178 28.1551L28.1503 22.6226L30.6503 23.8726L23.8678 30.6551Z" fill="#0F73F6"/>
<path d="M9.56209 26.7499C9.46647 26.6596 9.3399 26.6092 9.20833 26.6092C9.07677 26.6092 8.9502 26.6596 8.85458 26.7499L8.21959 27.3849C6.52503 25.0851 5.59021 22.3138 5.54539 19.4574C5.50058 16.6011 6.34801 13.8018 7.96958 11.4499C8.45541 11.7173 9.01478 11.82 9.56388 11.7426C10.113 11.6653 10.6222 11.4121 11.0153 11.021C11.4084 10.6299 11.6641 10.1219 11.7442 9.57319C11.8243 9.02449 11.7245 8.46461 11.4596 7.97745C13.8115 6.35587 16.6107 5.50844 19.4671 5.55326C22.3235 5.59807 25.0947 6.53289 27.3946 8.22745L26.7496 8.85495C26.6566 8.94869 26.6045 9.07541 26.6046 9.20745C26.6042 9.27325 26.6168 9.33848 26.6417 9.3994C26.6666 9.46032 26.7032 9.51573 26.7496 9.56245L28.9546 11.7499C29.0483 11.8431 29.175 11.8953 29.3071 11.8953C29.4392 11.8953 29.5659 11.8431 29.6596 11.7499L31.8521 9.55745C31.8986 9.51101 31.9355 9.45586 31.9606 9.39517C31.9858 9.33447 31.9987 9.2694 31.9987 9.2037C31.9987 9.13799 31.9858 9.07292 31.9606 9.01223C31.9355 8.95153 31.8986 8.89638 31.8521 8.84995L29.6596 6.65745C29.5659 6.56432 29.4392 6.51205 29.3071 6.51205C29.175 6.51205 29.0483 6.56432 28.9546 6.65745L28.1071 7.49995C26.0183 5.92819 23.5489 4.94069 20.9523 4.63885C18.3558 4.33702 15.7257 4.73173 13.3321 5.78245L16.2146 2.90745C16.5414 3.06362 16.913 3.09897 17.2634 3.00722C17.6138 2.91548 17.9204 2.70258 18.1288 2.40629C18.3372 2.11001 18.4339 1.74948 18.4017 1.38868C18.3696 1.02788 18.2107 0.690131 17.9532 0.43535C17.6957 0.180569 17.3563 0.0252291 16.9952 -0.00311238C16.6341 -0.0314539 16.2746 0.0690358 15.9805 0.280529C15.6864 0.492022 15.4768 0.800846 15.3888 1.15221C15.3007 1.50358 15.34 1.87478 15.4996 2.19995L10.6346 7.07245C10.1406 6.7411 9.54694 6.59153 8.95495 6.6493C8.36296 6.70706 7.80939 6.96858 7.3888 7.38916C6.96821 7.80975 6.7067 8.36332 6.64894 8.95531C6.59117 9.5473 6.74074 10.141 7.07208 10.6349L2.19958 15.4999C1.87314 15.3409 1.50087 15.3027 1.14894 15.3922C0.796997 15.4817 0.48818 15.693 0.277359 15.9887C0.0665389 16.2844 -0.0326304 16.6452 -0.00252665 17.0071C0.0275771 17.369 0.185004 17.7085 0.441781 17.9653C0.698557 18.222 1.03805 18.3795 1.39994 18.4096C1.76183 18.4397 2.12267 18.3405 2.41834 18.1297C2.71401 17.9188 2.92537 17.61 3.01486 17.2581C3.10434 16.9062 3.06615 16.5339 2.90708 16.2074L5.78958 13.3324C4.73782 15.7254 4.34186 18.3551 4.64238 20.9517C4.94289 23.5482 5.92904 26.018 7.49958 28.1074L6.65458 28.9549C6.56146 29.0486 6.50919 29.1754 6.50919 29.3074C6.50919 29.4395 6.56146 29.5663 6.65458 29.6599L8.84708 31.8524C8.94042 31.9463 9.06719 31.9994 9.19958 31.9999C9.26556 32 9.3309 31.987 9.39183 31.9617C9.45276 31.9364 9.50807 31.8992 9.55459 31.8524L11.7496 29.6599C11.8427 29.5663 11.895 29.4395 11.895 29.3074C11.895 29.1754 11.8427 29.0486 11.7496 28.9549L9.56209 26.7499ZM29.3121 7.71245L30.7971 9.19745L29.3121 10.6824L27.8271 9.19745L29.3121 7.71245ZM16.4996 1.15745C16.5739 1.08254 16.6688 1.0314 16.7722 1.0105C16.8756 0.989599 16.9829 0.999891 17.0804 1.04007C17.178 1.08024 17.2614 1.14849 17.3201 1.23615C17.3788 1.32382 17.4101 1.42694 17.4101 1.53245C17.4101 1.63795 17.3788 1.74107 17.3201 1.82874C17.2614 1.9164 17.178 1.98465 17.0804 2.02483C16.9829 2.065 16.8756 2.07529 16.7722 2.05439C16.6688 2.0335 16.5739 1.98235 16.4996 1.90745C16.4503 1.85822 16.4112 1.79977 16.3845 1.73542C16.3578 1.67108 16.3441 1.6021 16.3441 1.53245C16.3441 1.46279 16.3578 1.39382 16.3845 1.32947C16.4112 1.26513 16.4503 1.20667 16.4996 1.15745ZM8.09959 8.09995C8.24477 7.95406 8.41735 7.8383 8.60741 7.7593C8.79747 7.68031 9.00126 7.63965 9.20709 7.63965C9.41291 7.63965 9.6167 7.68031 9.80676 7.7593C9.99682 7.8383 10.1694 7.95406 10.3146 8.09995C10.5341 8.31906 10.6836 8.59836 10.7443 8.9025C10.805 9.20663 10.7741 9.52193 10.6555 9.8085C10.5369 10.0951 10.336 10.34 10.0782 10.5124C9.82037 10.6847 9.51721 10.7767 9.20709 10.7767C8.89696 10.7767 8.5938 10.6847 8.33597 10.5124C8.07814 10.34 7.87723 10.0951 7.75866 9.8085C7.6401 9.52193 7.6092 9.20663 7.66989 8.9025C7.73057 8.59836 7.88012 8.31906 8.09959 8.09995ZM1.90958 17.2499C1.80751 17.3351 1.67728 17.3789 1.54451 17.3729C1.41173 17.3669 1.28599 17.3115 1.19201 17.2175C1.09802 17.1235 1.04258 16.9978 1.03659 16.865C1.03059 16.7322 1.07446 16.602 1.15958 16.4999C1.25964 16.4016 1.3943 16.3465 1.53458 16.3465C1.67486 16.3465 1.80953 16.4016 1.90958 16.4999C1.95887 16.5492 1.99797 16.6076 2.02464 16.672C2.05132 16.7363 2.06505 16.8053 2.06505 16.8749C2.06505 16.9446 2.05132 17.0136 2.02464 17.0779C1.99797 17.1423 1.95887 17.2007 1.90958 17.2499ZM9.20709 30.7824L7.72208 29.2974L9.20709 27.8124L10.6921 29.2974L9.20709 30.7824Z" fill="#0F73F6"/>
</g>
<defs>
<clipPath id="clip0_3364_7584">
<rect width="32" height="32" fill="white"/>
</clipPath>
</defs>
</svg>
