<svg width="64" height="64" viewBox="0 0 64 64" fill="none" xmlns="http://www.w3.org/2000/svg">
<path d="M12.5323 16.8C9.86562 19.7334 8.26562 22.9334 8.26562 28.2667C8.26562 37.6 14.9323 45.8667 24.2656 50.1334L26.6656 46.6667C17.8656 41.8667 15.999 35.7334 15.4656 31.7334C16.799 32.5334 18.6656 32.8 20.5323 32.5334C25.3323 32 29.0656 28.2667 29.0656 23.2C29.0656 20.8 27.999 18.4 26.399 16.5334C24.5323 14.6667 22.399 13.8667 19.7323 13.8667C16.799 13.8667 14.1323 15.2 12.5323 16.8ZM39.199 16.8C36.5323 19.7334 34.9323 22.9334 34.9323 28.2667C34.9323 37.6 41.599 45.8667 50.9323 50.1334L53.3323 46.6667C44.5323 41.8667 42.6656 35.7334 42.1323 31.7334C43.4656 32.5334 45.3323 32.8 47.199 32.5334C51.999 32 55.7323 28.2667 55.7323 23.2C55.7323 20.8 54.6656 18.4 53.0656 16.5334C51.4656 14.6667 49.0656 13.8667 46.399 13.8667C43.4656 13.8667 40.799 15.2 39.199 16.8Z" fill="#0F73F6"/>
</svg>
