<svg width="150" height="150" viewBox="0 0 150 150" fill="none" xmlns="http://www.w3.org/2000/svg">
<path fill-rule="evenodd" clip-rule="evenodd" d="M99.9734 98.6999H73.6484C72.6734 98.6999 71.9234 97.9499 71.9234 96.9749C71.9234 96.0749 72.6734 95.2499 73.6484 95.2499H99.9734V82.4999H95.9234H95.8484H95.7734H95.6984H95.5484L95.3984 82.4249H95.2484H95.0984H95.0234L94.8734 82.3499H94.7234L94.5734 82.2749H94.4984H94.3484L94.1984 82.1999L94.1234 82.1249H93.9734C93.8984 82.0499 93.8234 82.0499 93.7484 81.9749C93.5984 81.9749 93.4484 81.8999 93.3734 81.8249C91.6484 80.9249 90.5234 79.1249 90.5234 77.0249V49.9499C90.5234 48.2249 91.2734 46.7249 92.4734 45.7499L92.6234 45.6749L92.6984 45.5999L92.7734 45.5249H92.8484L92.9234 45.4499L92.9984 45.3749H93.0734V45.2999H93.1484L93.2234 45.2249H93.2984L93.3734 45.1499H93.4484L93.5234 45.0749C94.2734 44.6999 95.0984 44.4749 95.9234 44.4749H99.9734V41.9249C99.9734 39.8999 98.3984 38.3249 96.3734 38.3249H53.6234C51.5984 38.3249 50.0234 39.8999 50.0234 41.9249V51.2999H76.3484C77.3234 51.2999 78.0734 52.0499 78.0734 53.0249C78.0734 53.9249 77.3234 54.7499 76.3484 54.7499H50.0234V67.4999H54.0734H54.1484H54.2234H54.2984H54.3734H54.4484L54.5984 67.5749H54.7484H54.8234H54.8984H54.9734H55.0484L55.1234 67.6499H55.1984H55.2734L55.4234 67.7249H55.4984H55.6484V67.7999H55.7984L55.8734 67.8749H55.9484H56.0234L56.1734 67.9499L56.2484 68.0249H56.3984V68.0999H56.4734H56.5484L56.6234 68.1749L56.7734 68.2499L56.8484 68.3249L56.9984 68.3999H57.0734L57.1484 68.4749L57.2234 68.5499L57.2984 68.6249L57.3734 68.6999L57.4484 68.7749L57.5984 68.8499H57.6734V68.9249H57.7484V68.9999H57.8234V69.0749C57.8984 69.1499 57.9734 69.2249 58.1234 69.2999V69.3749L58.2734 69.5249L58.3484 69.5999L58.4234 69.6749V69.7499L58.4984 69.8999L58.5734 69.9749L58.6484 70.0499C58.6484 70.1249 58.7234 70.1999 58.7234 70.2749L58.7984 70.3499L58.8734 70.4249V70.4999L58.9484 70.5749V70.6499L59.0234 70.7249V70.8749L59.0984 70.9499C59.0984 71.0249 59.1734 71.0999 59.1734 71.0999V71.1749V71.2499H59.2484V71.3249V71.3999V71.4749V71.5499C59.3234 71.5499 59.3234 71.6249 59.3234 71.6999L59.3984 71.8499V71.9999V72.1499V72.2249L59.4734 72.3749V72.5249V72.6749V72.8249V72.9749V96.8249V100.05C59.4734 100.35 59.4734 100.65 59.3984 100.875C59.3984 101.025 59.3984 101.175 59.3234 101.25C59.3234 101.4 59.2484 101.55 59.2484 101.7L59.1734 101.775V101.85V101.925L59.0984 102.075C59.0984 102.15 59.0234 102.225 59.0234 102.3L58.9484 102.375V102.45L58.8734 102.525L58.7984 102.6V102.675L58.7234 102.75V102.825V102.9H58.6484V102.975L58.5734 103.05V103.125H58.4984V103.2H58.4234V103.275C58.3484 103.35 58.3484 103.35 58.3484 103.425L58.1984 103.5L58.1234 103.575V103.65C57.1484 104.775 55.6484 105.525 54.0734 105.525H50.0234V108.075C50.0234 110.1 51.5984 111.675 53.6234 111.675H96.3734C98.3984 111.675 99.9734 110.1 99.9734 108.075V98.6999ZM58.6484 70.0499C58.6484 70.1249 58.7234 70.1999 58.7234 70.2749L58.6484 70.0499ZM103.498 138.975H46.4984C42.0734 138.975 38.4734 135.375 38.4734 131.025V121.5V105.525H26.9234H26.7734L26.6234 105.45H26.5484H26.3984H26.2484H26.0984L25.9484 105.375H25.8734H25.7984H25.7234L25.5734 105.3C23.2484 104.7 21.5234 102.6 21.5234 100.05V72.9749C21.5234 69.9749 23.9234 67.4999 26.9234 67.4999H38.4734V28.4999V18.9749C38.4734 14.6249 42.0734 11.0249 46.4984 11.0249H103.498C107.923 11.0249 111.523 14.6249 111.523 18.9749V28.4249V28.4999V28.5749V44.4749H123.073C126.073 44.4749 128.473 46.9499 128.473 49.9499V77.0249C128.473 80.0249 126.073 82.4999 123.073 82.4999H111.523V121.5V131.025C111.523 135.375 107.923 138.975 103.498 138.975ZM40.1984 102.075H44.7734L41.8484 99.1499L41.7734 99.0749L32.2484 89.5499L24.8984 96.9749V100.05V100.125V100.2V100.275V100.35L24.9734 100.425V100.5V100.575V100.65L25.0484 100.725V100.8V100.875H25.1234V100.95V101.025L25.1984 101.1V101.175H25.2734V101.25L25.3484 101.325L25.4234 101.4L25.4984 101.475L25.5734 101.55V101.625H25.6484L25.7234 101.7L25.7984 101.775H25.8734L25.9484 101.85H26.0234L26.0984 101.925H26.1734H26.2484V102H26.3234H26.3984H26.4734L26.5484 102.075H26.6234H26.6984H26.7734H26.8484H26.9234H40.1984ZM93.9734 77.3249V77.3999V77.4749V77.5499V77.6249C94.0484 77.6249 94.0484 77.6999 94.0484 77.7749V77.8499H94.1234V77.9249V77.9999H94.1984V78.0749L94.2734 78.1499V78.2249H94.3484V78.2999L94.4234 78.3749C94.4984 78.4499 94.4984 78.5249 94.5734 78.5249V78.5999C94.9484 78.8999 95.4734 79.0499 95.9234 79.0499H101.698H101.773H109.798H109.873H123.073C124.198 79.0499 125.098 78.1499 125.098 77.0249V49.9499C125.098 48.8249 124.198 47.9249 123.073 47.9249H95.9234C95.0234 47.9249 94.1984 48.5999 93.9734 49.4249V49.4999V49.5749V49.6499V49.7249V49.7999H93.8984V49.8749V49.9499V77.0249V77.0999V77.1749H93.9734V77.2499V77.3249ZM41.9234 105.525V119.775H108.073V82.4999H103.423V96.8999V96.9749V97.0499V108.075C103.423 111.975 100.273 115.125 96.3734 115.125H53.6234C49.7234 115.125 46.5734 111.975 46.5734 108.075V105.525H41.9234ZM41.9234 123.225V131.025C41.9234 133.5 43.9484 135.6 46.4984 135.6H103.498C106.048 135.6 108.073 133.5 108.073 131.025V123.225H41.9234ZM103.423 44.4749H108.073V30.2249H41.9234V67.4999H46.5734V41.9249C46.5734 38.0249 49.7234 34.8749 53.6234 34.8749H96.3734C100.273 34.8749 103.423 38.0249 103.423 41.9249V44.4749ZM108.073 26.7749V18.9749C108.073 16.4999 106.048 14.3999 103.498 14.3999H89.0984V15.8999C89.0984 18.6749 86.8484 20.8499 84.1484 20.8499H65.8484C63.1484 20.8499 60.8984 18.6749 60.8984 15.8999V14.3999H46.4984C43.9484 14.3999 41.9234 16.4999 41.9234 18.9749V26.7749H108.073ZM64.3484 14.3999V15.8999C64.3484 16.7999 65.0234 17.4749 65.8484 17.4749H84.1484C84.9734 17.4749 85.6484 16.7999 85.6484 15.8999V14.3999H64.3484ZM81.3734 131.1H68.0234C67.1234 131.1 66.3734 130.35 66.3734 129.375C66.3734 128.475 67.1234 127.725 68.0234 127.725H81.3734C82.3484 127.725 83.0984 128.475 83.0984 129.375C83.0984 130.35 82.3484 131.1 81.3734 131.1ZM49.4984 102.075H54.0734C55.1234 102.075 56.0984 101.175 56.0984 100.05V97.5749L50.9234 92.3999L45.4484 97.9499L48.5984 101.1L49.1984 101.7H49.2734V101.775C49.3484 101.85 49.4234 101.925 49.4984 102.075ZM56.0984 92.6999V72.9749C56.0984 72.5999 56.0234 72.2999 55.8734 72.0749C55.7984 71.9999 55.7984 71.9999 55.7984 71.9249L55.7234 71.8499V71.7749H55.6484V71.6999L55.5734 71.6249V71.5499H55.4984L55.4234 71.4749L55.3484 71.3999L55.2734 71.3249H55.1984V71.2499H55.1234L55.0484 71.1749H54.9734V71.0999H54.8984C54.6734 71.0249 54.3734 70.9499 54.0734 70.9499H26.9234C25.7984 70.9499 24.8984 71.8499 24.8984 72.9749V92.0999L31.0484 85.9499C31.7234 85.2749 32.8484 85.2749 33.4484 85.9499L43.0484 95.4749L49.7234 88.7999C50.3984 88.1249 51.5234 88.1249 52.1234 88.7999L56.0984 92.6999ZM93.9734 82.1249C93.8984 82.0499 93.8234 82.0499 93.7484 81.9749L93.9734 82.1249ZM43.4984 87.8999C39.8234 87.8999 36.8234 84.8999 36.8234 81.2249C36.8234 77.5499 39.8234 74.5499 43.4984 74.5499C47.1734 74.5499 50.1734 77.5499 50.1734 81.2249C50.1734 84.8999 47.1734 87.8999 43.4984 87.8999ZM43.4984 77.9249C41.6984 77.9249 40.1984 79.4249 40.1984 81.2249C40.1984 83.0249 41.6984 84.5249 43.4984 84.5249C45.2984 84.5249 46.7984 83.0249 46.7984 81.2249C46.7984 79.4249 45.2984 77.9249 43.4984 77.9249ZM119.248 57.2999H108.373C107.473 57.2999 106.648 56.5499 106.648 55.5749C106.648 54.6749 107.473 53.8499 108.373 53.8499H119.248C120.148 53.8499 120.898 54.6749 120.898 55.5749C120.898 56.5499 120.148 57.2999 119.248 57.2999ZM102.898 57.2999H99.8234C98.8484 57.2999 98.0984 56.5499 98.0984 55.5749C98.0984 54.6749 98.8484 53.8499 99.8234 53.8499H102.898C103.873 53.8499 104.623 54.6749 104.623 55.5749C104.623 56.5499 103.873 57.2999 102.898 57.2999ZM119.248 65.1749H116.473C115.498 65.1749 114.748 64.4249 114.748 63.5249C114.748 62.5499 115.498 61.7999 116.473 61.7999H119.248C120.148 61.7999 120.898 62.5499 120.898 63.5249C120.898 64.4249 120.148 65.1749 119.248 65.1749ZM109.498 65.1749H99.8234C98.8484 65.1749 98.0984 64.4249 98.0984 63.5249C98.0984 62.5499 98.8484 61.7999 99.8234 61.7999H109.498C110.398 61.7999 111.223 62.5499 111.223 63.5249C111.223 64.4249 110.398 65.1749 109.498 65.1749ZM119.248 73.1249H110.848C109.948 73.1249 109.123 72.3749 109.123 71.3999C109.123 70.4999 109.948 69.6749 110.848 69.6749H119.248C120.148 69.6749 120.898 70.4999 120.898 71.3999C120.898 72.3749 120.148 73.1249 119.248 73.1249ZM103.723 73.1249H99.8234C98.8484 73.1249 98.0984 72.3749 98.0984 71.3999C98.0984 70.4999 98.8484 69.6749 99.8234 69.6749H103.723C104.623 69.6749 105.448 70.4999 105.448 71.3999C105.448 72.3749 104.623 73.1249 103.723 73.1249Z" fill="#0F73F6"/>
</svg>
