<svg width="48" height="48" viewBox="0 0 48 48" fill="none" xmlns="http://www.w3.org/2000/svg">
<path fill-rule="evenodd" clip-rule="evenodd" d="M31.9907 31.584H23.5667C23.2547 31.584 23.0147 31.344 23.0147 31.032C23.0147 30.744 23.2547 30.48 23.5667 30.48H31.9907V26.4H30.6947H30.6707H30.6467H30.6227H30.5747L30.5267 26.376H30.4787H30.4307H30.4067L30.3587 26.352H30.3107L30.2627 26.328H30.2387H30.1907L30.1427 26.304L30.1187 26.28H30.0707C30.0467 26.256 30.0227 26.256 29.9987 26.232C29.9507 26.232 29.9027 26.208 29.8787 26.184C29.3267 25.896 28.9667 25.32 28.9667 24.648V15.984C28.9667 15.432 29.2067 14.952 29.5907 14.64L29.6387 14.616L29.6627 14.592L29.6867 14.568H29.7107L29.7347 14.544L29.7587 14.52H29.7827V14.496H29.8067L29.8307 14.472H29.8547L29.8787 14.448H29.9027L29.9267 14.424C30.1667 14.304 30.4307 14.232 30.6947 14.232H31.9907V13.416C31.9907 12.768 31.4867 12.264 30.8387 12.264H17.1587C16.5107 12.264 16.0067 12.768 16.0067 13.416V16.416H24.4307C24.7427 16.416 24.9827 16.656 24.9827 16.968C24.9827 17.256 24.7427 17.52 24.4307 17.52H16.0067V21.6H17.3027H17.3267H17.3507H17.3747H17.3987H17.4227L17.4707 21.624H17.5187H17.5427H17.5667H17.5907H17.6147L17.6387 21.648H17.6627H17.6867L17.7347 21.672H17.7587H17.8067V21.696H17.8547L17.8787 21.72H17.9027H17.9267L17.9747 21.744L17.9987 21.768H18.0467V21.792H18.0707H18.0947L18.1187 21.816L18.1667 21.84L18.1907 21.864L18.2387 21.888H18.2627L18.2867 21.912L18.3107 21.936L18.3347 21.96L18.3587 21.984L18.3827 22.008L18.4307 22.032H18.4547V22.056H18.4787V22.08H18.5027V22.104C18.5267 22.128 18.5507 22.152 18.5987 22.176V22.2L18.6467 22.248L18.6707 22.272L18.6947 22.296V22.32L18.7187 22.368L18.7427 22.392L18.7667 22.416C18.7667 22.44 18.7907 22.464 18.7907 22.488L18.8147 22.512L18.8387 22.536V22.56L18.8627 22.584V22.608L18.8867 22.632V22.68L18.9107 22.704C18.9107 22.728 18.9347 22.752 18.9347 22.752V22.776V22.8H18.9587V22.824V22.848V22.872V22.896C18.9827 22.896 18.9827 22.92 18.9827 22.944L19.0067 22.992V23.04V23.088V23.112L19.0307 23.16V23.208V23.256V23.304V23.352V30.984V32.016C19.0307 32.112 19.0307 32.208 19.0067 32.28C19.0067 32.328 19.0067 32.376 18.9827 32.4C18.9827 32.448 18.9587 32.496 18.9587 32.544L18.9347 32.568V32.592V32.616L18.9107 32.664C18.9107 32.688 18.8867 32.712 18.8867 32.736L18.8627 32.76V32.784L18.8387 32.808L18.8147 32.832V32.856L18.7907 32.88V32.904V32.928H18.7667V32.952L18.7427 32.976V33H18.7187V33.024H18.6947V33.048C18.6707 33.072 18.6707 33.072 18.6707 33.096L18.6227 33.12L18.5987 33.144V33.168C18.2867 33.528 17.8067 33.768 17.3027 33.768H16.0067V34.584C16.0067 35.232 16.5107 35.736 17.1587 35.736H30.8387C31.4867 35.736 31.9907 35.232 31.9907 34.584V31.584ZM18.7667 22.416C18.7667 22.44 18.7907 22.464 18.7907 22.488L18.7667 22.416ZM33.1187 44.472H14.8787C13.4627 44.472 12.3107 43.32 12.3107 41.928V38.88V33.768H8.61472H8.56672L8.51872 33.744H8.49472H8.44672H8.39872H8.35072L8.30272 33.72H8.27872H8.25472H8.23072L8.18272 33.696C7.43872 33.504 6.88672 32.832 6.88672 32.016V23.352C6.88672 22.392 7.65472 21.6 8.61472 21.6H12.3107V9.11995V6.07195C12.3107 4.67995 13.4627 3.52795 14.8787 3.52795H33.1187C34.5347 3.52795 35.6867 4.67995 35.6867 6.07195V9.09595V9.11995V9.14395V14.232H39.3827C40.3427 14.232 41.1107 15.024 41.1107 15.984V24.648C41.1107 25.608 40.3427 26.4 39.3827 26.4H35.6867V38.88V41.928C35.6867 43.32 34.5347 44.472 33.1187 44.472ZM12.8627 32.664H14.3267L13.3907 31.728L13.3667 31.704L10.3187 28.656L7.96672 31.032V32.016V32.04V32.064V32.088V32.112L7.99072 32.136V32.16V32.184V32.208L8.01472 32.232V32.256V32.28H8.03872V32.304V32.328L8.06272 32.352V32.376H8.08672V32.4L8.11072 32.424L8.13472 32.448L8.15872 32.472L8.18272 32.496V32.52H8.20672L8.23072 32.544L8.25472 32.568H8.27872L8.30272 32.592H8.32672L8.35072 32.616H8.37472H8.39872V32.64H8.42272H8.44672H8.47072L8.49472 32.664H8.51872H8.54272H8.56672H8.59072H8.61472H12.8627ZM30.0707 24.744V24.768V24.792V24.816V24.84C30.0947 24.84 30.0947 24.864 30.0947 24.888V24.912H30.1187V24.936V24.96H30.1427V24.984L30.1667 25.008V25.032H30.1907V25.056L30.2147 25.08C30.2387 25.104 30.2387 25.128 30.2627 25.128V25.152C30.3827 25.248 30.5507 25.296 30.6947 25.296H32.5427H32.5667H35.1347H35.1587H39.3827C39.7427 25.296 40.0307 25.008 40.0307 24.648V15.984C40.0307 15.624 39.7427 15.336 39.3827 15.336H30.6947C30.4067 15.336 30.1427 15.552 30.0707 15.816V15.84V15.864V15.888V15.912V15.936H30.0467V15.96V15.984V24.648V24.672V24.696H30.0707V24.72V24.744ZM13.4147 33.768V38.328H34.5827V26.4H33.0947V31.008V31.032V31.056V34.584C33.0947 35.832 32.0867 36.84 30.8387 36.84H17.1587C15.9107 36.84 14.9027 35.832 14.9027 34.584V33.768H13.4147ZM13.4147 39.432V41.928C13.4147 42.72 14.0627 43.392 14.8787 43.392H33.1187C33.9347 43.392 34.5827 42.72 34.5827 41.928V39.432H13.4147ZM33.0947 14.232H34.5827V9.67195H13.4147V21.6H14.9027V13.416C14.9027 12.168 15.9107 11.16 17.1587 11.16H30.8387C32.0867 11.16 33.0947 12.168 33.0947 13.416V14.232ZM34.5827 8.56795V6.07195C34.5827 5.27995 33.9347 4.60795 33.1187 4.60795H28.5107V5.08795C28.5107 5.97595 27.7907 6.67195 26.9267 6.67195H21.0707C20.2067 6.67195 19.4867 5.97595 19.4867 5.08795V4.60795H14.8787C14.0627 4.60795 13.4147 5.27995 13.4147 6.07195V8.56795H34.5827ZM20.5907 4.60795V5.08795C20.5907 5.37595 20.8067 5.59195 21.0707 5.59195H26.9267C27.1907 5.59195 27.4067 5.37595 27.4067 5.08795V4.60795H20.5907ZM26.0387 41.952H21.7667C21.4787 41.952 21.2387 41.712 21.2387 41.4C21.2387 41.112 21.4787 40.872 21.7667 40.872H26.0387C26.3507 40.872 26.5907 41.112 26.5907 41.4C26.5907 41.712 26.3507 41.952 26.0387 41.952ZM15.8387 32.664H17.3027C17.6387 32.664 17.9507 32.376 17.9507 32.016V31.224L16.2947 29.568L14.5427 31.344L15.5507 32.352L15.7427 32.544H15.7667V32.568C15.7907 32.592 15.8147 32.616 15.8387 32.664ZM17.9507 29.664V23.352C17.9507 23.232 17.9267 23.136 17.8787 23.064C17.8547 23.04 17.8547 23.04 17.8547 23.016L17.8307 22.992V22.968H17.8067V22.944L17.7827 22.92V22.896H17.7587L17.7347 22.872L17.7107 22.848L17.6867 22.824H17.6627V22.8H17.6387L17.6147 22.776H17.5907V22.752H17.5667C17.4947 22.728 17.3987 22.704 17.3027 22.704H8.61472C8.25472 22.704 7.96672 22.992 7.96672 23.352V29.472L9.93472 27.504C10.1507 27.288 10.5107 27.288 10.7027 27.504L13.7747 30.552L15.9107 28.416C16.1267 28.2 16.4867 28.2 16.6787 28.416L17.9507 29.664ZM30.0707 26.28C30.0467 26.256 30.0227 26.256 29.9987 26.232L30.0707 26.28ZM13.9187 28.128C12.7427 28.128 11.7827 27.168 11.7827 25.992C11.7827 24.816 12.7427 23.856 13.9187 23.856C15.0947 23.856 16.0547 24.816 16.0547 25.992C16.0547 27.168 15.0947 28.128 13.9187 28.128ZM13.9187 24.936C13.3427 24.936 12.8627 25.416 12.8627 25.992C12.8627 26.568 13.3427 27.048 13.9187 27.048C14.4947 27.048 14.9747 26.568 14.9747 25.992C14.9747 25.416 14.4947 24.936 13.9187 24.936ZM38.1587 18.336H34.6787C34.3907 18.336 34.1267 18.096 34.1267 17.784C34.1267 17.496 34.3907 17.232 34.6787 17.232H38.1587C38.4467 17.232 38.6867 17.496 38.6867 17.784C38.6867 18.096 38.4467 18.336 38.1587 18.336ZM32.9267 18.336H31.9427C31.6307 18.336 31.3907 18.096 31.3907 17.784C31.3907 17.496 31.6307 17.232 31.9427 17.232H32.9267C33.2387 17.232 33.4787 17.496 33.4787 17.784C33.4787 18.096 33.2387 18.336 32.9267 18.336ZM38.1587 20.856H37.2707C36.9587 20.856 36.7187 20.616 36.7187 20.328C36.7187 20.016 36.9587 19.776 37.2707 19.776H38.1587C38.4467 19.776 38.6867 20.016 38.6867 20.328C38.6867 20.616 38.4467 20.856 38.1587 20.856ZM35.0387 20.856H31.9427C31.6307 20.856 31.3907 20.616 31.3907 20.328C31.3907 20.016 31.6307 19.776 31.9427 19.776H35.0387C35.3267 19.776 35.5907 20.016 35.5907 20.328C35.5907 20.616 35.3267 20.856 35.0387 20.856ZM38.1587 23.4H35.4707C35.1827 23.4 34.9187 23.16 34.9187 22.848C34.9187 22.56 35.1827 22.296 35.4707 22.296H38.1587C38.4467 22.296 38.6867 22.56 38.6867 22.848C38.6867 23.16 38.4467 23.4 38.1587 23.4ZM33.1907 23.4H31.9427C31.6307 23.4 31.3907 23.16 31.3907 22.848C31.3907 22.56 31.6307 22.296 31.9427 22.296H33.1907C33.4787 22.296 33.7427 22.56 33.7427 22.848C33.7427 23.16 33.4787 23.4 33.1907 23.4Z" fill="white"/>
</svg>
