<svg width="24" height="24" viewBox="0 0 24 24" fill="none" xmlns="http://www.w3.org/2000/svg">
<path d="M19.6441 6.18005C20.5012 5.64387 21.1425 4.7996 21.4483 3.80486C20.6429 4.30492 19.7618 4.65717 18.8429 4.84639C17.569 3.43621 15.5505 3.09303 13.9155 4.00862C12.2804 4.92421 11.4335 6.87189 11.848 8.76335C8.54901 8.59003 5.47544 6.95936 3.3921 4.2771C2.30485 6.2395 2.86046 8.74812 4.66182 10.01C4.01043 9.98806 3.37348 9.80351 2.80409 9.4717C2.80409 9.48971 2.80409 9.50772 2.80409 9.52573C2.80447 11.5699 4.18125 13.3307 6.09599 13.7358C5.49179 13.9079 4.85802 13.9332 4.24304 13.8099C4.78153 15.558 6.32121 16.7556 8.07611 16.7914C6.62265 17.9851 4.82769 18.6325 2.98002 18.6293C2.65252 18.6298 2.32528 18.6101 2 18.5703C3.87627 19.8319 6.06002 20.5016 8.29028 20.4992C11.3931 20.5215 14.375 19.2415 16.569 16.9455C18.763 14.6494 19.986 11.529 19.9644 8.28211C19.9644 8.09601 19.9603 7.91092 19.952 7.72683C20.7556 7.11913 21.4491 6.3663 22 5.50372C21.2514 5.85095 20.4573 6.07893 19.6441 6.18005Z" fill="#0D0D15"/>
</svg>
