<svg width="150" height="150" viewBox="0 0 150 150" fill="none" xmlns="http://www.w3.org/2000/svg">
<mask id="mask0_4186_3721" style="mask-type:luminance" maskUnits="userSpaceOnUse" x="0" y="0" width="150" height="150">
<path d="M0 1.52588e-05H150V150H0V1.52588e-05Z" fill="white"/>
</mask>
<g mask="url(#mask0_4186_3721)">
<path d="M42.2741 143.038H100.116C100.913 143.038 101.578 142.382 101.578 141.576V138.146C101.578 135.447 99.3687 133.246 96.6778 133.246H45.7039C43.0133 133.246 40.8125 135.447 40.8125 138.146V141.576C40.8125 142.382 41.4685 143.038 42.2741 143.038Z" stroke="#0265DC" stroke-width="3.5" stroke-miterlimit="10" stroke-linecap="round" stroke-linejoin="round"/>
<path d="M51.7344 133.246L55.6461 120.166M86.7468 120.166L90.65 133.246" stroke="#0265DC" stroke-width="3.5" stroke-miterlimit="10" stroke-linecap="round" stroke-linejoin="round"/>
<path d="M18.1562 109.054H112.821" stroke="#0265DC" stroke-width="3.5" stroke-miterlimit="10" stroke-linecap="round" stroke-linejoin="round"/>
<path d="M2.19531 81.6397C2.19531 83.7658 3.93086 85.5095 6.05693 85.5095H93.1645C95.2905 85.5095 97.0261 83.7658 97.0261 81.6397V10.8239C97.0261 8.69781 95.2905 6.96226 93.1645 6.96226H6.05693C3.93086 6.96226 2.19531 8.69781 2.19531 10.8239V81.6397Z" stroke="#0265DC" stroke-width="3.5" stroke-miterlimit="10" stroke-linecap="round" stroke-linejoin="round"/>
<path d="M66.124 120.166H22.1591C19.9583 120.166 18.1562 118.364 18.1562 116.163V85.5096M112.821 120.166H76.2309M97.0258 46.5931H120.229C122.429 46.5931 124.232 48.3951 124.232 50.5959V90.6005" stroke="#0265DC" stroke-width="3.5" stroke-miterlimit="10" stroke-linecap="round" stroke-linejoin="round"/>
<path d="M54.6892 27.4585H97.0264M2.19531 27.4585H44.5407" stroke="#0265DC" stroke-width="3.5" stroke-miterlimit="10" stroke-linecap="round" stroke-linejoin="round"/>
<path d="M85.4062 17.2021V17.2188" stroke="#0265DC" stroke-width="3.5" stroke-miterlimit="10" stroke-linecap="round" stroke-linejoin="round"/>
<path d="M74.5469 17.2021V17.2188" stroke="#0265DC" stroke-width="3.5" stroke-miterlimit="10" stroke-linecap="round" stroke-linejoin="round"/>
<path d="M63.6836 17.2021V17.2188" stroke="#0265DC" stroke-width="3.5" stroke-miterlimit="10" stroke-linecap="round" stroke-linejoin="round"/>
<path d="M13.8125 17.2021L36.3017 17.2188" stroke="#0265DC" stroke-width="3.5" stroke-miterlimit="10" stroke-linecap="round" stroke-linejoin="round"/>
<path d="M84.2273 38.7781H51.6896C50.8758 38.7781 50.2031 39.4426 50.2031 40.2646V50.0729C50.2031 50.8947 50.8758 51.5674 51.6896 51.5674H84.2273C85.0412 51.5674 85.7139 50.8947 85.7139 50.0729V40.2646C85.7139 39.4426 85.0412 38.7781 84.2273 38.7781Z" stroke="#0265DC" stroke-width="3.5" stroke-miterlimit="10" stroke-linecap="round" stroke-linejoin="round"/>
<path d="M85.7136 63.7842H50.2031" stroke="#0265DC" stroke-width="3.5" stroke-miterlimit="10" stroke-linecap="round" stroke-linejoin="round"/>
<path d="M67.5349 74.1902H85.7136M50.2031 74.1902H55.626" stroke="#0265DC" stroke-width="3.5" stroke-miterlimit="10" stroke-linecap="round" stroke-linejoin="round"/>
<path d="M130.313 134.251H130.238" stroke="#0265DC" stroke-width="3.5" stroke-miterlimit="10" stroke-linecap="round" stroke-linejoin="round"/>
<path d="M116.865 143.038H143.747C145.972 143.038 147.8 141.219 147.8 138.985V94.645C147.8 92.4193 145.972 90.6006 143.747 90.6006H116.865C114.639 90.6006 112.82 92.4193 112.82 94.645V138.985C112.82 141.219 114.639 143.038 116.865 143.038Z" stroke="#0265DC" stroke-width="3.5" stroke-miterlimit="10" stroke-linecap="round" stroke-linejoin="round"/>
<path d="M15.0028 38.7782H37.4006C38.2227 38.7782 38.8953 39.4426 38.8953 40.2647V72.6955C38.8953 73.5175 38.2227 74.1902 37.4006 74.1902H15.0028C14.1808 74.1902 13.5078 73.5175 13.5078 72.6955V40.2647C13.5078 39.4426 14.1808 38.7782 15.0028 38.7782Z" stroke="#0265DC" stroke-width="3.5" stroke-miterlimit="10" stroke-linecap="round" stroke-linejoin="round"/>
</g>
</svg>
