<svg width="0" height="0" style="position:absolute"><symbol viewBox="0 0 24 24" fill="none" id="icon-cards" xmlns="http://www.w3.org/2000/svg"><path d="M8.4 3H4.6c-.56 0-.84 0-1.054.109a1 1 0 0 0-.437.437C3 3.76 3 4.04 3 4.6v3.8c0 .56 0 .84.109 1.054a1 1 0 0 0 .437.437C3.76 10 4.04 10 4.6 10h3.8c.56 0 .84 0 1.054-.109a1 1 0 0 0 .437-.437C10 9.24 10 8.96 10 8.4V4.6c0-.56 0-.84-.109-1.054a1 1 0 0 0-.437-.437C9.24 3 8.96 3 8.4 3ZM19.4 3h-3.8c-.56 0-.84 0-1.054.109a1 1 0 0 0-.437.437C14 3.76 14 4.04 14 4.6v3.8c0 .56 0 .84.109 1.054a1 1 0 0 0 .437.437C14.76 10 15.04 10 15.6 10h3.8c.56 0 .84 0 1.054-.109a1 1 0 0 0 .437-.437C21 9.24 21 8.96 21 8.4V4.6c0-.56 0-.84-.109-1.054a1 1 0 0 0-.437-.437C20.24 3 19.96 3 19.4 3ZM19.4 14h-3.8c-.56 0-.84 0-1.054.109a1 1 0 0 0-.437.437C14 14.76 14 15.04 14 15.6v3.8c0 .56 0 .84.109 1.054a1 1 0 0 0 .437.437C14.76 21 15.04 21 15.6 21h3.8c.56 0 .84 0 1.054-.109a1 1 0 0 0 .437-.437C21 20.24 21 19.96 21 19.4v-3.8c0-.56 0-.84-.109-1.054a1 1 0 0 0-.437-.437C20.24 14 19.96 14 19.4 14ZM8.4 14H4.6c-.56 0-.84 0-1.054.109a1 1 0 0 0-.437.437C3 14.76 3 15.04 3 15.6v3.8c0 .56 0 .84.109 1.054a1 1 0 0 0 .437.437C3.76 21 4.04 21 4.6 21h3.8c.56 0 .84 0 1.054-.109a1 1 0 0 0 .437-.437C10 20.24 10 19.96 10 19.4v-3.8c0-.56 0-.84-.109-1.054a1 1 0 0 0-.437-.437C9.24 14 8.96 14 8.4 14Z" stroke="#F8F7FF" stroke-width="2" stroke-linecap="round" stroke-linejoin="round"/></symbol><symbol viewBox="0 0 16 12" fill="none" id="icon-check" xmlns="http://www.w3.org/2000/svg"><path d="M15.766.36a.8.8 0 0 0-1.132 0L5.05 9.943 1.366 6.26A.8.8 0 0 0 .234 7.39l4.25 4.25a.8.8 0 0 0 1.132 0l10.15-10.15a.8.8 0 0 0 0-1.132Z" fill="#0265DC"/></symbol><symbol viewBox="0 0 16 16" fill="none" id="icon-chevron-down" xmlns="http://www.w3.org/2000/svg"><path d="m4 6 4 4 4-4" stroke="#0D0D15" stroke-width="2" stroke-linecap="round" stroke-linejoin="round"/></symbol><symbol viewBox="0 0 24 24" fill="none" id="icon-chevron-left" xmlns="http://www.w3.org/2000/svg"><path d="m15 18-6-6 6-6" stroke="#0D0D15" stroke-width="2" stroke-linecap="round" stroke-linejoin="round"/></symbol><symbol viewBox="0 0 24 24" fill="none" id="icon-chevron-right" xmlns="http://www.w3.org/2000/svg"><path d="m9 18 6-6-6-6" stroke="#0D0D15" stroke-width="2" stroke-linecap="round" stroke-linejoin="round"/></symbol><symbol viewBox="0 0 16 16" fill="none" id="icon-chevron-up" xmlns="http://www.w3.org/2000/svg"><path d="M12 10 8 6l-4 4" stroke="#0D0D15" stroke-width="2" stroke-linecap="round" stroke-linejoin="round"/></symbol><symbol viewBox="0 0 24 24" fill="none" id="icon-clock" xmlns="http://www.w3.org/2000/svg"><path d="M12 6v6l4 2m6-2c0 5.523-4.477 10-10 10S2 17.523 2 12 6.477 2 12 2s10 4.477 10 10Z" stroke="#0265DC" stroke-width="2" stroke-linecap="round" stroke-linejoin="round"/></symbol><symbol viewBox="0 0 24 24" fill="none" id="icon-facebook" xmlns="http://www.w3.org/2000/svg"><path d="M2.002 12.061c.001 4.95 3.578 9.165 8.437 9.94V14.97H7.902v-2.908h2.54V9.848a3.563 3.563 0 0 1 .972-2.853 3.516 3.516 0 0 1 2.801-1.071c.75.012 1.5.08 2.24.201V8.6h-1.264a1.44 1.44 0 0 0-1.19.393 1.46 1.46 0 0 0-.438 1.18v1.89h2.771l-.443 2.908h-2.328v7.031c5.254-.835 8.939-5.664 8.385-10.987-.555-5.323-5.155-9.278-10.467-8.999C6.168 2.295 2.003 6.71 2 12.061Z" fill="#0D0D15"/></symbol><symbol viewBox="0 0 1089 898" fill="none" id="icon-faq-bg" xmlns="http://www.w3.org/2000/svg"><g opacity=".1" filter="url(#aifilter0_f_54_7020)"><ellipse cx="544.5" cy="449" rx="344.5" ry="249" fill="#0F73F6"/></g><defs><filter id="aifilter0_f_54_7020" x="0" y="0" width="1089" height="898" filterUnits="userSpaceOnUse" color-interpolation-filters="sRGB"><feFlood flood-opacity="0" result="BackgroundImageFix"/><feBlend in="SourceGraphic" in2="BackgroundImageFix" result="shape"/><feGaussianBlur stdDeviation="100" result="effect1_foregroundBlur_54_7020"/></filter></defs></symbol><symbol viewBox="0 0 150 150" fill="none" id="icon-fonts" xmlns="http://www.w3.org/2000/svg"><path d="M75 60.938v28.124M65.625 60.938h18.75M107.812 107.812H42.188V42.188h65.624v65.624Z" stroke="#0F73F6" stroke-width="3.5" stroke-miterlimit="10" stroke-linecap="round" stroke-linejoin="round"/><mask id="ajmask0_4186_3763" style="mask-type:luminance" maskUnits="userSpaceOnUse" x="0" y="0" width="150" height="150"><path d="M0 0h150v150H0V0Z" fill="#fff"/></mask><g mask="url(#ajmask0_4186_3763)" stroke="#0F73F6" stroke-width="3.5" stroke-miterlimit="10" stroke-linecap="round" stroke-linejoin="round"><path d="M23.438 23.438H4.395V4.395h19.043v19.043ZM23.438 145.605H4.395v-19.042h19.043v19.042ZM145.605 145.605h-19.043v-19.042h19.043v19.042ZM14.063 23.438v103.124M126.562 23.438h19.043V4.395h-19.043v19.043ZM135.938 42.188v9.374M135.938 70.313v9.374M135.938 98.438v9.374M23.438 14.063h103.124M107.812 135.938h-9.374M79.688 135.938h-9.376M51.563 135.938h-9.376"/></g></symbol><symbol viewBox="0 0 24 24" fill="none" id="icon-heart" xmlns="http://www.w3.org/2000/svg"><path d="M19.501 12.572 12.001 20l-7.5-7.428a5 5 0 1 1 7.5-6.566 5 5 0 1 1 7.5 6.572" stroke="#273544" stroke-opacity=".55" stroke-width="2" stroke-linecap="round" stroke-linejoin="round"/></symbol><symbol viewBox="0 0 150 150" fill="none" id="icon-illustration" xmlns="http://www.w3.org/2000/svg"><path d="M9.082 79.825h9.553A9.526 9.526 0 0 0 28.16 70.3a9.526 9.526 0 0 1 9.526-9.526h12.955c8.207 0 14.86-6.653 14.86-14.86s-6.653-14.86-14.86-14.86M105.508 114.551c12.45 0 22.543-10.093 22.543-22.544 0-9.613-6.017-17.82-14.491-21.062M94.408 69.465H70.155a8.806 8.806 0 0 0-8.806 8.806 8.806 8.806 0 0 1-8.806 8.805h-1.306c-7.587 0-13.737 6.15-13.737 13.737s6.15 13.738 13.737 13.738M92.961 114.551v6.445a6.445 6.445 0 0 1-6.445 6.445H63.48a6.445 6.445 0 0 1-6.445-6.445v-6.445M118.117 65.296l-15.051-10.539" stroke="#0F73F6" stroke-width="3.5" stroke-miterlimit="10" stroke-linejoin="round"/><path d="M133.887 140.332H16.113c-7.12 0-12.89-5.771-12.89-12.891v-12.89h143.554v12.89c0 7.12-5.771 12.891-12.89 12.891ZM95.629 69.362c3.22-7.728 8.816-17.657 16.007-27.928 14.294-20.413 29.478-34.442 33.915-31.335 4.437 3.107-3.553 22.174-17.846 42.586-7.217 10.307-14.661 18.987-20.834 24.655" stroke="#0F73F6" stroke-width="3.5" stroke-miterlimit="10" stroke-linecap="round" stroke-linejoin="round"/><path d="M83.425 84.028a15.574 15.574 0 0 1-2.55 11.966c8.435 3.403 18.354.871 24.055-6.6 4.271-5.597 3.265-13.694-2.506-17.725-5.53-3.863-13.144-2.517-17.014 3.01a12.188 12.188 0 0 0-1.985 9.349Z" stroke="#0F73F6" stroke-width="3.5" stroke-miterlimit="10" stroke-linecap="round" stroke-linejoin="round"/><path d="M140.918 114.551V42.773c0-2.664-.889-5.12-2.387-7.09M119.241 31.055h-98.44c-6.472 0-11.719 5.246-11.719 11.718v71.778" stroke="#0F73F6" stroke-width="3.5" stroke-miterlimit="10" stroke-linejoin="round"/></symbol><symbol viewBox="0 0 24 24" fill="none" id="icon-list" xmlns="http://www.w3.org/2000/svg"><path d="M21 12H9m12-6H9m12 12H9m-4-6a1 1 0 1 1-2 0 1 1 0 0 1 2 0Zm0-6a1 1 0 1 1-2 0 1 1 0 0 1 2 0Zm0 12a1 1 0 1 1-2 0 1 1 0 0 1 2 0Z" stroke="#0D0D15" stroke-width="2" stroke-linecap="round" stroke-linejoin="round"/></symbol><symbol viewBox="0 0 24 24" fill="none" id="icon-location" xmlns="http://www.w3.org/2000/svg"><path d="M12 22c1-5 8-5.582 8-12a8 8 0 1 0-16 0c0 6.418 7 7 8 12Z" stroke="#0265DC" stroke-width="2" stroke-linecap="round" stroke-linejoin="round"/><path d="M12 13a3 3 0 1 0 0-6 3 3 0 0 0 0 6Z" stroke="#0265DC" stroke-width="2" stroke-linecap="round" stroke-linejoin="round"/></symbol><symbol viewBox="0 0 188 42" fill="none" id="icon-logo" xmlns="http://www.w3.org/2000/svg"><path d="M0 38.77V3h13.78c2.472 0 4.657.432 6.552 1.296 1.927.865 3.436 2.145 4.528 3.842 1.093 1.696 1.639 3.793 1.639 6.29 0 2.432-.563 4.497-1.687 6.193-1.092 1.697-2.601 2.993-4.529 3.89-1.895.864-4.063 1.296-6.504 1.296H7.468V38.77H0Zm7.468-19.445h6.36c1.06 0 1.975-.208 2.746-.624a4.409 4.409 0 0 0 1.782-1.729c.45-.736.675-1.584.675-2.545 0-.992-.225-1.856-.675-2.592a4.409 4.409 0 0 0-1.782-1.729c-.771-.416-1.687-.624-2.747-.624h-6.36v9.843ZM29.795 38.77V12.555h7.227V38.77h-7.227Zm0-28.568V3h7.227v7.202h-7.227ZM39.275 38.77l9.202-13.155-9.25-13.06h8.383l6.938 10.179h-3.662l6.938-10.18h8.383l-9.25 13.06L66.11 38.77h-8.336l-6.793-10.179h3.47l-6.794 10.18h-8.383ZM68.425 38.77V12.555h6.745v6.386l-.723-1.057c.385-2.016 1.317-3.505 2.794-4.465 1.478-.96 3.244-1.44 5.3-1.44 2.184 0 4.095.56 5.733 1.68 1.67 1.088 2.715 2.56 3.132 4.417l-2.072.192c.868-2.144 2.104-3.729 3.71-4.753 1.606-1.024 3.485-1.536 5.637-1.536 1.895 0 3.565.416 5.011 1.248 1.477.832 2.634 2 3.469 3.505.835 1.473 1.252 3.201 1.252 5.186V38.77h-7.227V23.454c0-1.024-.192-1.905-.578-2.64a4.032 4.032 0 0 0-1.541-1.73c-.675-.415-1.494-.623-2.458-.623-.931 0-1.75.208-2.457.624a4.36 4.36 0 0 0-1.59 1.728c-.353.736-.53 1.617-.53 2.641V38.77h-7.227V23.454c0-1.024-.192-1.905-.578-2.64a4.034 4.034 0 0 0-1.541-1.73c-.675-.415-1.494-.623-2.458-.623-.931 0-1.75.208-2.457.624a4.361 4.361 0 0 0-1.59 1.728c-.353.736-.53 1.617-.53 2.641V38.77h-7.226ZM120.348 39.347c-1.895 0-3.533-.304-4.914-.913-1.382-.608-2.442-1.472-3.18-2.592-.739-1.153-1.108-2.513-1.108-4.082 0-1.472.337-2.768 1.011-3.889.675-1.152 1.703-2.112 3.084-2.88 1.413-.769 3.164-1.313 5.251-1.633l8.046-1.296v5.281l-6.745 1.2c-1.028.193-1.815.529-2.361 1.009-.546.448-.819 1.104-.819 1.968 0 .8.305 1.425.916 1.873.61.448 1.365.672 2.264.672 1.189 0 2.232-.256 3.132-.768.899-.512 1.59-1.2 2.072-2.065.513-.896.77-1.872.77-2.929v-6.818c0-.992-.401-1.824-1.204-2.496-.771-.672-1.831-1.009-3.18-1.009-1.285 0-2.425.352-3.421 1.057-.963.704-1.67 1.632-2.12 2.785l-5.781-2.737a9.361 9.361 0 0 1 2.457-3.793c1.124-1.057 2.473-1.873 4.047-2.45 1.574-.575 3.292-.863 5.155-.863 2.217 0 4.176.4 5.878 1.2 1.703.8 3.019 1.92 3.951 3.361.963 1.408 1.445 3.057 1.445 4.945V38.77h-6.745v-4.225l1.638-.288c-.771 1.153-1.622 2.113-2.553 2.881a9.445 9.445 0 0 1-3.132 1.633c-1.156.384-2.441.576-3.854.576ZM139.331 38.77V12.555h6.745v6.29l-.482-.913c.578-2.208 1.526-3.697 2.843-4.465 1.349-.8 2.939-1.2 4.769-1.2h1.542v6.242h-2.264c-1.767 0-3.196.544-4.288 1.632-1.092 1.056-1.638 2.56-1.638 4.513V38.77h-7.227ZM170.564 39.059c-3.18 0-5.653-.849-7.42-2.545-1.734-1.729-2.601-4.13-2.601-7.202V18.797h-4.433v-6.242h.241c1.349 0 2.377-.336 3.084-1.008.738-.673 1.108-1.681 1.108-3.025v-1.92h7.227v5.953h6.167v6.242h-6.167v10.035c0 .896.16 1.648.481 2.256.322.576.819 1.008 1.494 1.297.674.288 1.51.432 2.505.432.225 0 .482-.016.771-.048.289-.032.594-.064.916-.096v6.097c-.482.064-1.028.128-1.639.193-.61.064-1.188.096-1.734.096ZM180.773 38.77v-7.202H188v7.202h-7.227Z" fill="#0265DC"/></symbol><symbol viewBox="0 0 300 58" fill="none" id="icon-logo-footer" xmlns="http://www.w3.org/2000/svg"><path d="M0 53.54V4.143h21.988c3.947 0 7.432.597 10.456 1.79 3.075 1.194 5.484 2.962 7.227 5.305 1.743 2.342 2.614 5.238 2.614 8.686 0 3.359-.897 6.21-2.691 8.553-1.743 2.343-4.152 4.133-7.227 5.37-3.024 1.194-6.483 1.79-10.379 1.79H11.917V53.54H0Zm11.917-26.853h10.148c1.691 0 3.152-.288 4.382-.862 1.23-.575 2.179-1.37 2.845-2.387.717-1.017 1.076-2.188 1.076-3.514 0-1.37-.358-2.564-1.076-3.581-.666-1.017-1.615-1.812-2.845-2.387-1.23-.575-2.69-.862-4.382-.862H11.917v13.593ZM47.545 53.54V17.338h11.532V53.54H47.545Zm0-39.451V4.143h11.532v9.946H47.545ZM62.672 53.54l14.685-18.167-14.761-18.035h13.377l11.07 14.056h-5.842l11.07-14.056h13.378L90.888 35.373l14.607 18.167h-13.3l-10.84-14.056h5.535L76.05 53.54H62.672ZM109.188 53.54V17.338h10.764v8.818l-1.154-1.459c.615-2.784 2.102-4.84 4.459-6.166 2.358-1.326 5.177-1.99 8.457-1.99 3.486 0 6.535.774 9.149 2.322 2.666 1.503 4.331 3.536 4.998 6.1l-3.306.265c1.384-2.962 3.357-5.15 5.92-6.564 2.562-1.415 5.561-2.122 8.995-2.122 3.024 0 5.689.574 7.996 1.724 2.357 1.15 4.202 2.763 5.535 4.84 1.333 2.034 1.999 4.42 1.999 7.161V53.54h-11.532V32.39c0-1.415-.308-2.63-.923-3.647-.564-1.017-1.384-1.812-2.46-2.387s-2.383-.862-3.921-.862c-1.486 0-2.793.287-3.921.862a6.46 6.46 0 0 0-2.537 2.387c-.564 1.017-.846 2.232-.846 3.647V53.54h-11.532V32.39c0-1.415-.308-2.63-.923-3.647-.563-1.017-1.384-1.812-2.46-2.387s-2.383-.862-3.921-.862c-1.486 0-2.793.287-3.921.862a6.46 6.46 0 0 0-2.537 2.387c-.564 1.017-.846 2.232-.846 3.647V53.54h-11.532ZM192.044 54.336c-3.024 0-5.638-.42-7.842-1.26-2.204-.84-3.895-2.033-5.074-3.58-1.179-1.592-1.768-3.47-1.768-5.636 0-2.034.538-3.824 1.614-5.371 1.077-1.591 2.717-2.917 4.921-3.978 2.255-1.061 5.048-1.813 8.38-2.255l12.839-1.79v7.294l-10.763 1.657c-1.64.265-2.896.73-3.767 1.393-.872.618-1.307 1.525-1.307 2.718 0 1.105.487 1.967 1.46 2.586.974.619 2.179.928 3.614.928 1.896 0 3.562-.353 4.997-1.06 1.435-.708 2.537-1.658 3.306-2.852a7.177 7.177 0 0 0 1.23-4.044V29.67c0-1.37-.641-2.52-1.922-3.448-1.23-.928-2.921-1.392-5.074-1.392-2.05 0-3.87.486-5.459 1.459-1.537.972-2.665 2.254-3.382 3.845l-9.226-3.779c.82-2.033 2.127-3.78 3.921-5.238 1.794-1.459 3.946-2.586 6.458-3.382 2.511-.795 5.253-1.193 8.226-1.193 3.537 0 6.663.552 9.38 1.657 2.716 1.106 4.818 2.653 6.304 4.642 1.538 1.945 2.306 4.221 2.306 6.83v23.87h-10.763v-5.836l2.614-.398c-1.23 1.592-2.588 2.918-4.075 3.979-1.486 1.017-3.152 1.768-4.997 2.254-1.845.53-3.895.796-6.151.796ZM222.336 53.54V17.338H233.1v8.685l-.769-1.26c.923-3.05 2.435-5.105 4.536-6.166 2.153-1.105 4.69-1.657 7.611-1.657h2.46v8.62h-3.613c-2.819 0-5.1.75-6.842 2.254-1.743 1.459-2.614 3.536-2.614 6.233V53.54h-11.533ZM272.177 53.938c-5.075 0-9.021-1.171-11.84-3.514-2.768-2.387-4.152-5.702-4.152-9.946v-14.52h-7.073v-8.62h.385c2.152 0 3.792-.465 4.92-1.393 1.179-.928 1.768-2.32 1.768-4.177V9.116h11.532v8.222h9.841v8.62h-9.841v13.857c0 1.238.257 2.277.769 3.116.513.796 1.307 1.393 2.384 1.79 1.076.398 2.409.597 3.997.597.359 0 .769-.022 1.231-.066.461-.044.948-.088 1.46-.133v8.421c-.768.089-1.64.177-2.614.265-.973.089-1.896.133-2.767.133ZM288.468 53.54v-9.946H300v9.946h-11.532Z" fill="#0265DC"/></symbol><symbol viewBox="0 0 24 24" fill="none" id="icon-mail" xmlns="http://www.w3.org/2000/svg"><path d="m2 7 8.165 5.715c.661.463.992.695 1.351.784a2 2 0 0 0 .968 0c.36-.09.69-.32 1.351-.784L22 7M6.8 20h10.4c1.68 0 2.52 0 3.162-.327a3 3 0 0 0 1.311-1.311C22 17.72 22 16.88 22 15.2V8.8c0-1.68 0-2.52-.327-3.162a3 3 0 0 0-1.311-1.311C19.72 4 18.88 4 17.2 4H6.8c-1.68 0-2.52 0-3.162.327a3 3 0 0 0-1.311 1.311C2 6.28 2 7.12 2 8.8v6.4c0 1.68 0 2.52.327 3.162a3 3 0 0 0 1.311 1.311C4.28 20 5.12 20 6.8 20Z" stroke="#0265DC" stroke-width="2" stroke-linecap="round" stroke-linejoin="round"/></symbol><symbol viewBox="0 0 32 32" fill="none" id="icon-meter" xmlns="http://www.w3.org/2000/svg"><g clip-path="url(#arclip0_3364_7582)" fill="#0F73F6"><path d="M30.4 21.333h-5.167l4.472-2.582a1.597 1.597 0 0 0 .591-2.186L26.562 10.1a1.6 1.6 0 0 0-2.189-.582L19.9 12.1l2.582-4.471a1.6 1.6 0 0 0-.583-2.192l-6.466-3.734a1.598 1.598 0 0 0-2.183.59l-2.583 4.475V1.6C10.666.717 9.95.001 9.067 0H1.6C.717.001.001.717 0 1.6v28.8c.001.883.717 1.599 1.6 1.6h28.8a1.602 1.602 0 0 0 1.6-1.6v-7.467a1.602 1.602 0 0 0-1.6-1.6Zm-28.8 0a1.585 1.585 0 0 0-.533.099V16h4.27l-3.08 5.333H1.6Zm21.5 0h-7.294l-2.443-4.227 5.542-3.2 4.264 7.387-.07.04Zm-5.048-8.166-6.314 3.646-4.23-2.442 3.2-5.54 7.385 4.264-.041.072ZM9.6 8.615l-3.277 5.677c-.002.003-.005.004-.006.007l-.003.008-.362.626H1.067v-6.4H9.6v.082Zm-2.625 6.68 3.696 2.134-6.76 3.904h-.422l3.486-6.038Zm5.023 2.6.007-.004.434-.251 2.136 3.693H6.043l5.954-3.438ZM9.6 22.4H16v8.533H9.6V22.4Zm7.467 0h6.4v8.533h-6.4V22.4Zm7.842-11.96a.526.526 0 0 1 .404-.056.54.54 0 0 1 .327.25l3.732 6.463a.531.531 0 0 1-.199.729l-5.08 2.933-4.264-7.386 5.08-2.934ZM14.175 2.824a.531.531 0 0 1 .726-.198l6.462 3.732c.125.072.215.19.253.328a.528.528 0 0 1-.057.406l-2.932 5.078-7.386-4.264 2.934-5.082ZM1.6 1.067h7.467c.294 0 .533.239.533.533v5.867H1.067V1.6c0-.294.239-.533.533-.533ZM1.067 30.4v-7.467c0-.294.239-.533.533-.533h6.933v8.533H1.6a.534.534 0 0 1-.533-.533Zm29.866 0a.534.534 0 0 1-.533.533h-5.867V22.4H30.4c.294 0 .533.239.533.533V30.4Z"/><path d="M5.333 24.533a2.133 2.133 0 1 0 0 4.267 2.133 2.133 0 0 0 0-4.267Zm0 3.2a1.067 1.067 0 1 1 0-2.133 1.067 1.067 0 0 1 0 2.133Z"/></g><defs><clipPath id="arclip0_3364_7582"><path fill="#fff" d="M0 0h32v32H0z"/></clipPath></defs></symbol><symbol viewBox="0 0 32 32" fill="none" id="icon-pen" xmlns="http://www.w3.org/2000/svg"><g clip-path="url(#asclip0_3364_7584)" fill="#0F73F6"><path d="m31.723 23.283-3.28-1.64-2.088-5.43a.5.5 0 0 0-.28-.285L13.123 10.75a.5.5 0 0 0-.538.11l-1.727 1.728a.5.5 0 0 0-.108.535l5.178 12.952a.501.501 0 0 0 .285.28l5.43 2.088 1.64 3.28a.5.5 0 0 0 .367.277.445.445 0 0 0 .08 0 .5.5 0 0 0 .353-.147l7.77-7.77A.5.5 0 0 0 32 23.65a.499.499 0 0 0-.277-.367ZM11.798 13.058l.277-.275 6.448 6.447a2.942 2.942 0 1 0 .707-.707l-6.447-6.448.275-.277L25.5 16.775l1.963 5.105-5.583 5.583-5.105-1.963-4.977-12.442Zm9.127 5.925a1.942 1.942 0 1 1-.005 3.884 1.942 1.942 0 0 1 .005-3.884Zm2.943 11.672-1.25-2.5 5.532-5.532 2.5 1.25-6.782 6.782Z"/><path d="M9.562 26.75a.515.515 0 0 0-.707 0l-.635.635a13.727 13.727 0 0 1-.25-15.935 2.564 2.564 0 0 0 3.49-3.473 13.727 13.727 0 0 1 15.935.25l-.645.628a.5.5 0 0 0 0 .707l2.205 2.188a.5.5 0 0 0 .705 0l2.192-2.193a.499.499 0 0 0 0-.707L29.66 6.657a.5.5 0 0 0-.705 0l-.848.843a14.728 14.728 0 0 0-14.775-1.718l2.883-2.875A1.532 1.532 0 1 0 15.5 2.2l-4.865 4.872a2.568 2.568 0 0 0-3.563 3.563L2.2 15.5a1.535 1.535 0 1 0 .707.707l2.883-2.875A14.728 14.728 0 0 0 7.5 28.107l-.845.848a.5.5 0 0 0 0 .705l2.192 2.192a.5.5 0 0 0 .708 0l2.195-2.192a.5.5 0 0 0 0-.705L9.562 26.75Zm19.75-19.038 1.485 1.485-1.485 1.485-1.485-1.485 1.485-1.485ZM16.5 1.157a.533.533 0 1 1 .756.75.533.533 0 0 1-.756-.75ZM8.1 8.1a1.562 1.562 0 0 1 2.215 0 1.567 1.567 0 1 1-2.215 0Zm-6.19 9.15a.532.532 0 0 1-.75-.75.535.535 0 0 1 .865.172.53.53 0 0 1-.115.578Zm7.297 13.532-1.485-1.485 1.485-1.485 1.485 1.485-1.485 1.485Z"/></g><defs><clipPath id="asclip0_3364_7584"><path fill="#fff" d="M0 0h32v32H0z"/></clipPath></defs></symbol><symbol viewBox="0 0 24 24" fill="none" id="icon-phone" xmlns="http://www.w3.org/2000/svg"><path d="M8.38 8.853a14.603 14.603 0 0 0 2.847 4.01 14.603 14.603 0 0 0 4.01 2.847c.124.06.187.09.265.112.28.082.625.023.862-.147.067-.048.124-.105.239-.219.35-.35.524-.524.7-.639a2 2 0 0 1 2.18 0c.176.115.35.29.7.64l.195.194c.532.531.797.797.942 1.082a2 2 0 0 1 0 1.806c-.145.285-.41.551-.942 1.082l-.157.158c-.53.53-.795.794-1.155.997-.4.224-1.02.386-1.478.384-.413-.001-.695-.081-1.26-.241a19.038 19.038 0 0 1-8.283-4.874A19.039 19.039 0 0 1 3.17 7.761c-.16-.564-.24-.846-.241-1.26a3.377 3.377 0 0 1 .384-1.477c.202-.36.467-.625.997-1.155l.157-.158c.532-.53.798-.797 1.083-.941a2 2 0 0 1 1.805 0c.286.144.551.41 1.083.942l.195.194c.35.35.524.525.638.7a2 2 0 0 1 0 2.18c-.114.177-.289.352-.638.701-.115.114-.172.172-.22.238-.17.238-.228.582-.147.862.023.08.053.142.113.266Z" stroke="#0265DC" stroke-width="2" stroke-linecap="round" stroke-linejoin="round"/></symbol><symbol viewBox="0 0 24 24" fill="none" id="icon-play" xmlns="http://www.w3.org/2000/svg"><path d="M20.5 11.134a1 1 0 0 1 0 1.732l-12 6.928a1 1 0 0 1-1.5-.866V5.072a1 1 0 0 1 1.5-.866l12 6.928Z" fill="#0265DC"/></symbol><symbol viewBox="0 0 150 150" fill="none" id="icon-presentation" xmlns="http://www.w3.org/2000/svg"><path d="M72.371 62.056H50.227v-22.2M146.777 6.335H3.223v15.75h143.554V6.335ZM10.773 99.856V24.26M139.227 24.26v75.596M75 120.111v5.492M75 143.665c4.55 0 8.238-3.697 8.238-8.258 0-4.56-3.689-8.257-8.238-8.257-4.55 0-8.238 3.697-8.238 8.257 0 4.561 3.688 8.258 8.238 8.258Z" stroke="#0F73F6" stroke-width="3.5" stroke-miterlimit="10" stroke-linecap="round" stroke-linejoin="round"/><path d="M50.228 86.888C63.91 86.888 75 75.77 75 62.058c0-13.714-11.09-24.83-24.772-24.83-13.68 0-24.771 11.116-24.771 24.83 0 13.713 11.09 24.83 24.771 24.83ZM121.525 37.227h-31.94v19.577h31.94V37.227ZM89.586 70.412h31.939M89.586 83.373h31.939M146.777 102.03H3.223v15.75h143.554v-15.75Z" stroke="#0F73F6" stroke-width="3.5" stroke-miterlimit="10" stroke-linecap="round" stroke-linejoin="round"/></symbol><symbol viewBox="0 0 64 64" fill="none" id="icon-quote" xmlns="http://www.w3.org/2000/svg"><path d="M12.532 16.8c-2.666 2.933-4.266 6.133-4.266 11.467 0 9.333 6.666 17.6 16 21.866l2.4-3.466c-8.8-4.8-10.667-10.934-11.2-14.934 1.333.8 3.2 1.067 5.066.8 4.8-.533 8.534-4.266 8.534-9.333 0-2.4-1.067-4.8-2.667-6.667-1.867-1.866-4-2.666-6.667-2.666-2.933 0-5.6 1.333-7.2 2.933Zm26.667 0c-2.667 2.933-4.267 6.133-4.267 11.467 0 9.333 6.667 17.6 16 21.866l2.4-3.466c-8.8-4.8-10.666-10.934-11.2-14.934 1.334.8 3.2 1.067 5.067.8 4.8-.533 8.533-4.266 8.533-9.333 0-2.4-1.066-4.8-2.666-6.667-1.6-1.866-4-2.666-6.667-2.666-2.933 0-5.6 1.333-7.2 2.933Z" fill="#0F73F6"/></symbol><symbol viewBox="0 0 24 24" fill="none" id="icon-shopping-bag" xmlns="http://www.w3.org/2000/svg"><path d="M15.998 9V6a4 4 0 1 0-8 0v3M3.59 10.352l-.6 6.4c-.17 1.82-.255 2.73.046 3.432a3 3 0 0 0 1.32 1.45C5.028 22 5.942 22 7.77 22h8.458c1.828 0 2.742 0 3.413-.366a3 3 0 0 0 1.32-1.45c.302-.703.217-1.612.046-3.432l-.6-6.4c-.144-1.537-.216-2.305-.561-2.886a3 3 0 0 0-1.292-1.176C17.943 6 17.171 6 15.627 6H8.37c-1.543 0-2.315 0-2.925.29a3 3 0 0 0-1.292 1.176c-.345.581-.418 1.35-.562 2.886Z" stroke="#F8F7FF" stroke-width="2" stroke-linecap="round" stroke-linejoin="round"/></symbol><symbol viewBox="0 0 150 150" fill="none" id="icon-social-media" xmlns="http://www.w3.org/2000/svg"><path fill-rule="evenodd" clip-rule="evenodd" d="M99.973 98.7H73.648c-.975 0-1.725-.75-1.725-1.725 0-.9.75-1.725 1.725-1.725h26.325V82.5H95.548l-.15-.075h-.375l-.15-.075h-.15l-.15-.075H94.348l-.15-.075-.075-.075h-.15c-.075-.075-.15-.075-.225-.15-.15 0-.3-.075-.375-.15-1.725-.9-2.85-2.7-2.85-4.8V49.95c0-1.725.75-3.225 1.95-4.2l.15-.075.075-.075.075-.075h.075l.075-.075.075-.075h.075V45.3h.075l.075-.075h.075l.075-.075h.075l.075-.075c.75-.375 1.575-.6 2.4-.6h4.05v-2.55c0-2.025-1.575-3.6-3.6-3.6h-42.75c-2.025 0-3.6 1.575-3.6 3.6V51.3h26.325c.975 0 1.725.75 1.725 1.725 0 .9-.75 1.725-1.725 1.725H50.023V67.5H54.448l.15.075h.45l.075.075h.15l.15.075H55.648v.075h.15l.075.075h.15l.15.075.075.075h.15v.075h.15l.075.075.15.075.075.075.15.075h.075l.075.075.075.075.075.075.075.075.075.075.15.075h.075v.075h.075V69h.075v.075c.075.075.15.15.3.225v.075l.15.15.075.075.075.075v.075l.075.15.075.075.075.075c0 .075.075.15.075.225l.075.075.075.075v.075l.075.075v.075l.075.075v.15l.075.075c0 .075.075.15.075.15v.15h.075v.3c.075 0 .075.075.075.15l.075.15v.375l.075.15V100.05c0 .3 0 .6-.075.825 0 .15 0 .3-.075.375 0 .15-.075.3-.075.45l-.075.075v.15l-.075.15c0 .075-.075.15-.075.225l-.075.075v.075l-.075.075-.075.075v.075l-.075.075v.15h-.075v.075l-.075.075v.075h-.075v.075h-.075v.075c-.075.075-.075.075-.075.15l-.15.075-.075.075v.075c-.975 1.125-2.475 1.875-4.05 1.875h-4.05v2.55c0 2.025 1.575 3.6 3.6 3.6h42.75c2.025 0 3.6-1.575 3.6-3.6V98.7ZM58.648 70.05c0 .075.075.15.075.225l-.075-.225Zm44.85 68.925h-57c-4.425 0-8.025-3.6-8.025-7.95v-25.5H26.773l-.15-.075h-.525l-.15-.075H25.723l-.15-.075a5.401 5.401 0 0 1-4.05-5.25V72.975c0-3 2.4-5.475 5.4-5.475h11.55V18.975c0-4.35 3.6-7.95 8.025-7.95h57c4.425 0 8.025 3.6 8.025 7.95v25.5h11.55c3 0 5.4 2.475 5.4 5.475v27.075c0 3-2.4 5.475-5.4 5.475h-11.55v48.525c0 4.35-3.6 7.95-8.025 7.95Zm-63.3-36.9h4.575l-2.925-2.925-.075-.075-9.525-9.525-7.35 7.425V100.35l.075.075V100.65l.075.075v.15h.075v.15l.075.075v.075h.075v.075l.075.075.075.075.075.075.075.075v.075h.075l.075.075.075.075h.075l.075.075h.075l.075.075h.15V102H26.473l.075.075h13.65Zm53.775-24.75v.3c.075 0 .075.075.075.15v.075h.075V78h.075v.075l.075.075v.075h.075v.075l.075.075c.075.075.075.15.15.15v.075c.375.3.9.45 1.35.45h27.15c1.125 0 2.025-.9 2.025-2.025V49.95c0-1.125-.9-2.025-2.025-2.025h-27.15c-.9 0-1.725.675-1.95 1.5v.375h-.075V77.175h.075v.15Zm-52.05 28.2v14.25h66.15V82.5h-4.65v25.575c0 3.9-3.15 7.05-7.05 7.05h-42.75c-3.9 0-7.05-3.15-7.05-7.05v-2.55h-4.65Zm0 17.7v7.8c0 2.475 2.025 4.575 4.575 4.575h57c2.55 0 4.575-2.1 4.575-4.575v-7.8h-66.15Zm61.5-78.75h4.65v-14.25h-66.15V67.5h4.65V41.925c0-3.9 3.15-7.05 7.05-7.05h42.75c3.9 0 7.05 3.15 7.05 7.05v2.55Zm4.65-17.7v-7.8c0-2.475-2.025-4.575-4.575-4.575h-14.4v1.5c0 2.775-2.25 4.95-4.95 4.95h-18.3c-2.7 0-4.95-2.175-4.95-4.95v-1.5h-14.4c-2.55 0-4.575 2.1-4.575 4.575v7.8h66.15ZM64.348 14.4v1.5c0 .9.675 1.575 1.5 1.575h18.3c.825 0 1.5-.675 1.5-1.575v-1.5h-21.3Zm17.025 116.7h-13.35c-.9 0-1.65-.75-1.65-1.725 0-.9.75-1.65 1.65-1.65h13.35c.975 0 1.725.75 1.725 1.65 0 .975-.75 1.725-1.725 1.725Zm-31.875-29.025h4.575c1.05 0 2.025-.9 2.025-2.025v-2.475L50.923 92.4l-5.475 5.55 3.15 3.15.6.6h.075v.075c.075.075.15.15.225.3Zm6.6-9.375V72.975c0-.375-.075-.675-.225-.9-.075-.075-.075-.075-.075-.15l-.075-.075v-.075h-.075V71.7l-.075-.075v-.075h-.075l-.075-.075-.075-.075-.075-.075h-.075v-.075h-.075l-.075-.075h-.075V71.1h-.075a2.696 2.696 0 0 0-.825-.15h-27.15c-1.125 0-2.025.9-2.025 2.025V92.1l6.15-6.15c.675-.675 1.8-.675 2.4 0l9.6 9.525 6.675-6.675c.675-.675 1.8-.675 2.4 0l3.975 3.9Zm37.875-10.575c-.075-.075-.15-.075-.225-.15l.225.15ZM43.498 87.9c-3.675 0-6.675-3-6.675-6.675s3-6.675 6.675-6.675 6.675 3 6.675 6.675-3 6.675-6.675 6.675Zm0-9.975c-1.8 0-3.3 1.5-3.3 3.3 0 1.8 1.5 3.3 3.3 3.3 1.8 0 3.3-1.5 3.3-3.3 0-1.8-1.5-3.3-3.3-3.3Zm75.75-20.625h-10.875c-.9 0-1.725-.75-1.725-1.725 0-.9.825-1.725 1.725-1.725h10.875c.9 0 1.65.825 1.65 1.725 0 .975-.75 1.725-1.65 1.725Zm-16.35 0h-3.075c-.975 0-1.725-.75-1.725-1.725 0-.9.75-1.725 1.725-1.725h3.075c.975 0 1.725.825 1.725 1.725 0 .975-.75 1.725-1.725 1.725Zm16.35 7.875h-2.775c-.975 0-1.725-.75-1.725-1.65 0-.975.75-1.725 1.725-1.725h2.775c.9 0 1.65.75 1.65 1.725 0 .9-.75 1.65-1.65 1.65Zm-9.75 0h-9.675c-.975 0-1.725-.75-1.725-1.65 0-.975.75-1.725 1.725-1.725h9.675c.9 0 1.725.75 1.725 1.725 0 .9-.825 1.65-1.725 1.65Zm9.75 7.95h-8.4c-.9 0-1.725-.75-1.725-1.725 0-.9.825-1.725 1.725-1.725h8.4c.9 0 1.65.825 1.65 1.725 0 .975-.75 1.725-1.65 1.725Zm-15.525 0h-3.9c-.975 0-1.725-.75-1.725-1.725 0-.9.75-1.725 1.725-1.725h3.9c.9 0 1.725.825 1.725 1.725 0 .975-.825 1.725-1.725 1.725Z" fill="#0F73F6"/></symbol><symbol viewBox="0 0 24 24" fill="none" id="icon-telegram" xmlns="http://www.w3.org/2000/svg"><path d="M23.547 2.423c-.41-.308-1.053-.353-1.718-.116-.7.25-19.794 7.52-20.57 7.818-.142.043-1.377.452-1.25 1.364.114.82 1.106 1.161 1.227 1.2l4.854 1.476c.323.952 1.51 4.463 1.772 5.213.164.468.431 1.083.899 1.21.41.14.819.011 1.083-.173l2.968-2.444 4.79 3.317.115.061c.325.128.637.192.934.192a1.874 1.874 0 0 0 1.696-1.053l3.579-16.514c.218-.882-.085-1.33-.38-1.551ZM10.372 14.755l-1.638 3.877-1.638-4.846 12.555-8.238-9.28 9.207Z" fill="#0D0D15"/></symbol><symbol viewBox="0 0 24 24" fill="none" id="icon-trophy" xmlns="http://www.w3.org/2000/svg"><path d="M12 15a6 6 0 0 1-6-6V3.444c0-.413 0-.62.06-.786a1 1 0 0 1 .598-.598C6.824 2 7.031 2 7.444 2h9.112c.413 0 .62 0 .786.06a1 1 0 0 1 .598.598c.06.166.06.373.06.786V9a6 6 0 0 1-6 6Zm0 0v3m6-14h2.5c.466 0 .699 0 .883.076a1 1 0 0 1 .54.541c.077.184.077.417.077.883V6c0 .93 0 1.395-.102 1.776a3 3 0 0 1-2.122 2.122C19.395 10 18.93 10 18 10M6 4H3.5c-.466 0-.699 0-.883.076a1 1 0 0 0-.54.541C2 4.801 2 5.034 2 5.5V6c0 .93 0 1.395.102 1.776a3 3 0 0 0 2.122 2.122C4.605 10 5.07 10 6 10m1.444 12h9.112a.444.444 0 0 0 .444-.444A3.556 3.556 0 0 0 13.444 18h-2.888A3.556 3.556 0 0 0 7 21.556c0 .245.199.444.444.444Z" stroke="#F8F7FF" stroke-width="2" stroke-linecap="round" stroke-linejoin="round"/></symbol><symbol viewBox="0 0 24 24" fill="none" id="icon-twitter" xmlns="http://www.w3.org/2000/svg"><path d="M19.644 6.18a4.274 4.274 0 0 0 1.804-2.375c-.805.5-1.686.852-2.605 1.041-1.274-1.41-3.293-1.753-4.928-.837-1.635.915-2.481 2.863-2.067 4.754C8.549 8.59 5.475 6.96 3.392 4.277 2.305 6.24 2.86 8.748 4.662 10.01a3.951 3.951 0 0 1-1.858-.538v.054c0 2.044 1.377 3.805 3.292 4.21a3.933 3.933 0 0 1-1.853.074c.539 1.748 2.078 2.946 3.833 2.981A8.002 8.002 0 0 1 2 18.571a11.242 11.242 0 0 0 6.29 1.928c3.103.023 6.085-1.258 8.279-3.553 2.194-2.297 3.417-5.417 3.395-8.664 0-.186-.004-.371-.012-.555A8.561 8.561 0 0 0 22 5.504a7.92 7.92 0 0 1-2.356.676Z" fill="#0D0D15"/></symbol><symbol viewBox="0 0 150 150" fill="none" id="icon-ui-kits" xmlns="http://www.w3.org/2000/svg"><mask id="bcmask0_4186_3721" style="mask-type:luminance" maskUnits="userSpaceOnUse" x="0" y="0" width="150" height="150"><path d="M0 0h150v150H0V0Z" fill="#fff"/></mask><g mask="url(#bcmask0_4186_3721)" stroke="#0265DC" stroke-width="3.5" stroke-miterlimit="10" stroke-linecap="round" stroke-linejoin="round"><path d="M42.274 143.038h57.842a1.47 1.47 0 0 0 1.462-1.462v-3.43c0-2.699-2.21-4.9-4.9-4.9H45.704c-2.69 0-4.892 2.201-4.892 4.9v3.43c0 .806.657 1.462 1.462 1.462ZM51.734 133.246l3.912-13.08m31.1 0 3.904 13.08M18.156 109.054h94.665M2.195 81.64c0 2.126 1.736 3.87 3.862 3.87h87.108c2.125 0 3.861-1.744 3.861-3.87V10.824a3.87 3.87 0 0 0-3.861-3.862H6.056a3.87 3.87 0 0 0-3.862 3.862V81.64Z"/><path d="M66.124 120.166H22.159a4.016 4.016 0 0 1-4.003-4.003V85.51m94.665 34.656h-36.59m20.795-73.573h23.203c2.2 0 4.003 1.802 4.003 4.003V90.6M54.69 27.459h42.336m-94.83 0H44.54M85.406 17.202v.017M74.547 17.202v.017M63.684 17.202v.017M13.813 17.202l22.489.017M84.227 38.778H51.69a1.49 1.49 0 0 0-1.487 1.487v9.808c0 .822.673 1.494 1.487 1.494h32.537c.814 0 1.487-.672 1.487-1.494v-9.808a1.49 1.49 0 0 0-1.487-1.487ZM85.714 63.784h-35.51M67.535 74.19h18.179m-35.51 0h5.422M130.313 134.251h-.075M116.865 143.038h26.882a4.064 4.064 0 0 0 4.053-4.053v-44.34c0-2.226-1.828-4.044-4.053-4.044h-26.882a4.055 4.055 0 0 0-4.045 4.044v44.34a4.057 4.057 0 0 0 4.045 4.053ZM15.003 38.778H37.4c.822 0 1.494.665 1.494 1.487v32.43a1.5 1.5 0 0 1-1.494 1.495H15.003a1.5 1.5 0 0 1-1.495-1.495v-32.43c0-.822.673-1.487 1.495-1.487Z"/></g></symbol></svg>